<svg id="Layer_1" data-name="Layer 1" xmlns="http://www.w3.org/2000/svg" viewBox="0 0 606.43 155.98"><defs><style>.cls-1{fill:#47bae9;}.cls-2{fill:#4b90b2;}.cls-3{fill:#feca38;}.cls-4{fill:#df6f19;}.cls-5{fill:#fff;}</style></defs><title>dw-logo</title><polygon class="cls-1" points="0 38.99 0 116.98 67.54 155.98 135.08 116.98 135.08 38.99 67.54 0 0 38.99"/><polygon class="cls-2" points="67.54 0 67.54 155.98 0 116.98 0 38.99 67.54 0"/><polygon class="cls-3" points="117.29 79.33 135.08 79.33 135.08 97.77 117.29 102.9 117.29 79.33"/><polygon class="cls-3" points="95.78 79.33 95.78 50.65 135.08 61.06 135.08 79.33 95.78 79.33"/><polygon class="cls-4" points="67.54 0 67.54 41.28 41.99 49.75 41.99 14.75 67.54 0"/><polygon class="cls-3" points="67.54 0 135.08 38.99 135.08 61.06 67.54 41.28 67.54 0"/><polygon class="cls-5" points="135.08 62.46 135.08 59.66 67.52 39.87 43.34 47.89 43.34 13.97 40.65 15.53 40.65 51.61 67.57 42.69 94.44 50.56 94.44 80.68 115.95 80.68 115.95 104.69 135.08 99.17 135.08 96.37 118.64 101.11 118.64 80.68 135.08 80.68 135.08 77.99 97.12 77.99 97.12 51.35 135.08 62.46"/><path class="cls-5" d="M178.34,103.28h14.2c12.43,0,20.46,8.23,20.46,21.06s-8,21.07-20.46,21.07h-14.2ZM192.27,139c8.85,0,13.59-5.69,13.59-14.68s-4.71-14.75-13.59-14.75h-6.79v29.46Z"/><path class="cls-5" d="M234.88,145.43v-1.72c-1,1-4.11,2.27-7.54,2.27-6.28,0-11.4-3.71-11.4-9.95,0-5.76,5.16-9.81,11.88-9.81a14.21,14.21,0,0,1,7.05,1.85V125.6c0-3.08-1.92-5.49-5.83-5.49-2.74,0-4.45,1.17-5.21,3.29h-6.58c.89-5.22,5.7-9.14,11.94-9.14,7.68,0,12.21,4.25,12.21,11.18v20Zm0-10.63c-.78-1.92-3.5-3.09-6.27-3.09-3.09,0-6.31,1.3-6.31,4.32s3.22,4.39,6.31,4.39c2.74,0,5.49-1.16,6.27-3.09Z"/><path class="cls-5" d="M249.34,120.66h-4.81V115h4.81V106.8h6.86V115h6.85v5.69H256.2v15.78c0,2.47,1.37,3.57,3.63,3.57a7.3,7.3,0,0,0,3.92-1.24v6.28a10.69,10.69,0,0,1-5.15,1.1c-5.39,0-9.26-2.88-9.26-9Z"/><path class="cls-5" d="M285.66,145.43v-1.72c-1,1-4.12,2.27-7.54,2.27-6.28,0-11.4-3.71-11.4-9.95,0-5.76,5.15-9.81,11.87-9.81a14.22,14.22,0,0,1,7.06,1.85V125.6c0-3.08-1.92-5.49-5.83-5.49-2.75,0-4.46,1.17-5.22,3.29H268c.93-5.22,5.71-9.14,12-9.14,7.68,0,12.21,4.25,12.21,11.18v20Zm0-10.63c-.78-1.92-3.5-3.09-6.27-3.09-3.09,0-6.32,1.3-6.32,4.32s3.23,4.39,6.32,4.39c2.74,0,5.49-1.16,6.27-3.09Z"/><path class="cls-5" d="M338,103.28l8,31,7.62-31h6.86l-10.84,42.15H343l-8-30.12L327,145.43h-6.52l-10.84-42.15h7l7.63,31,8-31Z"/><path class="cls-5" d="M379.05,145.43v-1.72c-1,1-4.12,2.27-7.55,2.27-6.28,0-11.39-3.71-11.39-9.95,0-5.76,5.15-9.81,11.87-9.81a14.21,14.21,0,0,1,7,1.85V125.6c0-3.08-1.92-5.49-5.83-5.49-2.75,0-4.46,1.17-5.22,3.29H361.4c.91-5.22,5.71-9.14,12-9.14,7.68,0,12.22,4.25,12.22,11.18v20Zm0-10.63c-.78-1.92-3.51-3.09-6.27-3.09-3.09,0-6.28,1.3-6.28,4.32s3.23,4.39,6.28,4.39c2.74,0,5.49-1.16,6.27-3.09Z"/><path class="cls-5" d="M409.31,121.9a7.45,7.45,0,0,0-4-1,5.93,5.93,0,0,0-6.15,4.87v19.69h-6.86V115h6.86v3.13a7.64,7.64,0,0,1,6.8-3.84,8.34,8.34,0,0,1,3.35.55Z"/><path class="cls-5" d="M438.33,136c-1,6-5.49,10.19-12.83,10.19-8.51,0-14.41-6.44-14.41-15.85,0-9.12,6-16,14.27-16,8.58,0,13.24,6.1,13.24,15v2.47H417.81c.21,5.35,3.3,8.57,7.69,8.57,3.29,0,5.76-1.44,6.52-4.39ZM418,126.81h13.79c-.06-3.7-2.19-6.72-6.37-6.72C421.66,120.05,418.85,122.38,418,126.81Z"/><path class="cls-5" d="M443.55,100.83h6.86v17a11,11,0,0,1,8.23-3.59c6.93,0,10.77,4.59,10.77,11.32v19.85h-6.86V126.81c0-3.78-1.85-6.28-5.76-6.28a6.46,6.46,0,0,0-6.38,4.87v20h-6.86Z"/><path class="cls-5" d="M488.52,146.11c-8.58,0-14.48-6.58-14.48-15.91s5.85-15.94,14.48-15.94S503,120.85,503,130.18,497.06,146.11,488.52,146.11Zm0-25.93c-4.94,0-7.62,4.26-7.62,10s2.65,10,7.62,10,7.61-4.26,7.61-10S493.43,120.18,488.52,120.18Z"/><path class="cls-5" d="M533.29,145.43h-6.86v-2.88a10.81,10.81,0,0,1-8.16,3.56c-6.93,0-10.71-4.59-10.71-11.31V115h6.84v18.66c0,3.77,1.78,6.27,5.69,6.27A6.36,6.36,0,0,0,526.4,135V115h6.86Z"/><path class="cls-5" d="M545.31,136.65c.78,2.54,3,3.84,6,3.84s5.21-1.23,5.21-3.64c0-1.64-1-2.53-3.57-3.13l-6.31-1.52c-4.33-1-7.55-3.35-7.55-8.37,0-5.48,4.87-9.53,11.53-9.53,7.13,0,11.18,3.43,12.21,9h-6.72c-.62-2-2.4-3.37-5.56-3.37-2.4,0-4.87,1.1-4.87,3.5,0,1.37,1,2.27,3.13,2.81l6.45,1.52c5.21,1.23,7.84,4.18,7.84,8.62,0,6-5,9.74-11.87,9.74-7.14,0-12.08-3.56-13-9.46Z"/><path class="cls-5" d="M593.6,136c-1,6-5.49,10.19-12.83,10.19-8.51,0-14.41-6.44-14.41-15.85,0-9.12,6-16,14.28-16,8.57,0,13.23,6.1,13.23,15v2.47H573.09c.21,5.35,3.3,8.57,7.69,8.57,3.29,0,5.76-1.44,6.51-4.39Zm-20.3-9.15h13.79c-.07-3.7-2.2-6.72-6.38-6.72C576.94,120.05,574.13,122.38,573.3,126.81Z"/><path class="cls-5" d="M533.93,26.9a44.6,44.6,0,0,0-11.84,1.58,30.29,30.29,0,0,0-5.1,1.89,7.65,7.65,0,0,0-6.52-3.47h-8.11V87.4h15.78V56c0-6.11,1.05-8.49,3.16-10.6s5.33-3.16,9.7-3.16h6.8V26.9h-3.87"/><path class="cls-5" d="M245.81,9H237.7V80a7,7,0,0,0,2.25,5.3,7.59,7.59,0,0,0,5.41,2.15h8.12V16.46a7.05,7.05,0,0,0-2.25-5.3A7.63,7.63,0,0,0,245.81,9"/><path class="cls-5" d="M287.14,75.11c9.38,0,12.35-9.84,12.35-18.17s-3-18.3-12.35-18.3-12.24,10-12.24,18.3S277.75,75.11,287.14,75.11Zm0-49.68c17.81,0,27.68,11.74,27.68,31.31s-9.87,31.2-27.68,31.2c-18.15,0-27.57-11.7-27.57-31.2S269,25.43,287.15,25.43Z"/><path class="cls-5" d="M205.55,75.11c-9.38,0-12.24-9.84-12.24-18.17s2.86-18.3,12.24-18.3c4.88,0,8,2.71,9.9,6.46h16.4c-3.29-12.49-12.36-19.67-26.28-19.67C187.41,25.43,178,37.17,178,56.74s9.41,31.2,27.57,31.2c13.92,0,23-7.17,26.26-19.61H221.08A7.89,7.89,0,0,0,216.55,70C213.72,72.62,211.41,75.11,205.55,75.11Z"/><path class="cls-5" d="M371,29.09a7.3,7.3,0,0,0-5.52-2.26h-7.89V64.74c0,3.61-1.1,6.24-3.27,7.89a12.15,12.15,0,0,1-14.71,0q-3.27-2.47-3.27-7.89V34.5a7.53,7.53,0,0,0-2.15-5.41,7.27,7.27,0,0,0-5.52-2.26h-7.89V62c0,10.68,3,17.29,8.34,21s11.23,5,17.84,5,12.52-1.28,17.84-5,8.34-10.3,8.34-21V34.5A7.57,7.57,0,0,0,371,29.09Z"/><path class="cls-5" d="M433.29,11.16A7.63,7.63,0,0,0,427.88,9H420V31.45a22.07,22.07,0,0,0-15.11-6c-16.12,0-25.43,11.74-25.43,31.31s9.56,31.2,28,31.2c18,0,28-11.61,28.11-30.95h0V16.46A7.05,7.05,0,0,0,433.29,11.16Zm-25.88,64c-9.53,0-12.43-9.84-12.43-18.17s2.9-18.3,12.43-18.3S419.92,48.49,420,56.79V57h0C420,65.31,416.93,75.11,407.41,75.11Z"/><path class="cls-5" d="M496.54,53.22a7.74,7.74,0,0,1-.81,3.54,7.9,7.9,0,0,1-1.33,1.87,7,7,0,0,1-5.3,2.26H457c.41,7.2,4.08,14.23,12,14.23,5.86,0,8.16-2.5,11-5.17a7.87,7.87,0,0,1,4.52-1.62h10.76C492,80.77,483,87.94,469.06,87.94c-18.15,0-27.57-11.7-27.57-31.19s9.42-31.32,27.57-31.32c13.92,0,23,7.18,26.29,19.67a41.63,41.63,0,0,1,1.18,7.2ZM469.05,38.64a11.18,11.18,0,0,0-11.34,10.59h22.76C480.43,43.48,475.42,38.64,469.05,38.64Z"/><path class="cls-5" d="M590.57,42.19A14.31,14.31,0,0,0,584,29.68q-6.31-4.24-18.94-4.25-11.28,0-17.37,5.14a17.87,17.87,0,0,0-6.4,11.66h15.11a6,6,0,0,1,3.7-3.61,16.42,16.42,0,0,1,5.63-.9,18.43,18.43,0,0,1,6.43,1c2.29.79,3.49,2.12,3.49,4.35,0,2.4-3.3,4.63-9.92,5.49-8,1-14.23,1.89-19.94,6.09-3.68,2.7-6,7.64-6,13.89,0,6.71,2.08,11.44,6.09,14.42,3.57,2.65,9.37,4.92,18.75,4.92,8.42,0,14.73-1.83,18.94-4.66,4.36-3,6.81-6.41,7-12.69Zm-17,29.41q-3.61,3.51-9.93,3.51c-1.31,0-5.45-.29-7.17-1.94a5.78,5.78,0,0,1-2-4.63,6.14,6.14,0,0,1,1.57-4.2c2.23-2.35,4.67-2.68,9.92-3.84a43.12,43.12,0,0,0,9.95-3.27v4.55C575.93,65.88,576,69.27,573.62,71.6Z"/><path class="cls-5" d="M600.35,25.82a6,6,0,0,1,6.08,6.24,6,6,0,0,1-6.08,6.24,6,6,0,0,1-6-6.24A6,6,0,0,1,600.35,25.82Zm0,11.48a5.25,5.25,0,0,0,0-10.49,5.05,5.05,0,0,0-5,5.25A5.09,5.09,0,0,0,600.35,37.3Zm.09-4.34h-1.32v2.72h-1.31v-7.2h2.4c1.85,0,2.7.57,2.7,2.17,0,1.12-.27,1.78-1.14,2.15l1.3,2.88h-1.42Zm-1.32-1.1h1.34c.8,0,1.17-.28,1.17-1.14s-.46-1.15-1.42-1.15h-1.09Z"/></svg>