<svg id="Layer_1" data-name="Layer 1" xmlns="http://www.w3.org/2000/svg" viewBox="0 0 135.08 155.98">
    <defs>
        <style>.cls-1{fill:#47bae9;}.cls-2{fill:#4b90b2;}.cls-3{fill:#feca38;}.cls-4{fill:#df6f19;}.cls-5{fill:#fff;}
        </style>
    </defs>
    <title>cloudera-data-warehouse-logo</title>
    <polygon class="cls-1" points="0 38.99 0 116.98 67.54 155.98 135.08 116.98 135.08 38.99 67.54 0 0 38.99"/>
    <polygon class="cls-2" points="67.54 0 67.54 155.98 0 116.98 0 38.99 67.54 0"/>
    <polygon class="cls-3" points="117.29 79.33 135.08 79.33 135.08 97.77 117.29 102.9 117.29 79.33"/>
    <polygon class="cls-3" points="95.78 79.33 95.78 50.65 135.08 61.06 135.08 79.33 95.78 79.33"/>
    <polygon class="cls-4" points="67.54 0 67.54 41.28 41.99 49.75 41.99 14.75 67.54 0"/>
    <polygon class="cls-3" points="67.54 0 135.08 38.99 135.08 61.06 67.54 41.28 67.54 0"/>
    <polygon class="cls-5"
             points="135.08 62.46 135.08 59.66 67.52 39.87 43.34 47.89 43.34 13.97 40.65 15.53 40.65 51.61 67.57 42.69 94.44 50.56 94.44 80.68 115.95 80.68 115.95 104.69 135.08 99.17 135.08 96.37 118.64 101.11 118.64 80.68 135.08 80.68 135.08 77.99 97.12 77.99 97.12 51.35 135.08 62.46"/>
</svg>