<?xml version="1.0" encoding="UTF-8" standalone="no"?>
<svg width="620px" height="73px" viewBox="0 0 620 73" version="1.1" xmlns="http://www.w3.org/2000/svg" xmlns:xlink="http://www.w3.org/1999/xlink">
    <!-- Generator: Sketch 45.1 (43504) - http://www.bohemiancoding.com/sketch -->
    <title>enterprise-option2</title>
    <desc>Created with Sketch.</desc>
    <defs></defs>
    <g id="Page-1" stroke="none" stroke-width="1" fill="none" fill-rule="evenodd">
        <g id="enterprise-option2">
            <path d="M23.6,2.95 C34,2.95 41.3,9.05 43.4,18.35 L39,18.35 C36.7,11.55 31.4,7.15 23.5,7.15 C12.4,7.15 4.4,16.15 4.4,30.55 C4.4,44.95 12.4,53.95 23.5,53.95 C31.4,53.95 36.7,49.55 39,42.75 L43.4,42.75 C41.2,52.05 33.9,58.15 23.6,58.15 C10.4,58.15 0,47.45 0,30.55 C0,13.65 10.4,2.95 23.6,2.95 Z" id="Shape" fill="#2E3B42" fill-rule="nonzero"></path>
            <polygon id="Shape" fill="#2E3B42" fill-rule="nonzero" points="55.7 57.35 51.3 57.35 51.3 0.55 55.7 0.55"></polygon>
            <path d="M80.7,58.15 C70.5,58.15 63.6,49.95 63.6,37.95 C63.6,25.95 70.5,17.75 80.7,17.75 C90.9,17.75 97.9,25.95 97.9,37.95 C97.9,49.95 91,58.15 80.7,58.15 Z M80.7,21.65 C73,21.65 67.9,28.25 67.9,37.95 C67.9,47.65 73,54.25 80.7,54.25 C88.4,54.25 93.5,47.65 93.5,37.95 C93.5,28.25 88.5,21.65 80.7,21.65 Z" id="Shape" fill="#2E3B42" fill-rule="nonzero"></path>
            <path d="M135.4,57.35 L131.1,57.35 L131.1,51.15 C128.437873,55.403129 123.816215,58.0333409 118.8,58.15 C110,58.15 105.3,52.45 105.3,44.25 L105.3,18.55 L109.6,18.55 L109.6,43.65 C109.6,49.65 112.7,54.15 119.6,54.15 C124.9,54.15 129.2,50.35 131.1,45.75 L131.1,18.55 L135.4,18.55 L135.4,57.35 Z" id="Shape" fill="#2E3B42" fill-rule="nonzero"></path>
            <path d="M172.3,51.55 C169.567958,55.5736041 165.062034,58.0313805 160.2,58.15 C148.8,58.15 143.2,48.75 143.2,37.95 C143.2,27.15 148.7,17.75 160.2,17.75 C165.065139,17.857007 169.57604,20.3174983 172.3,24.35 L172.3,0.55 L176.6,0.55 L176.6,57.35 L172.3,57.35 L172.3,51.55 Z M172.3,29.45 C169.7,24.45 165.3,21.75 160.6,21.75 C152.5,21.75 147.7,28.55 147.7,37.95 C147.7,47.35 152.5,54.15 160.6,54.15 C165.3,54.15 169.7,51.45 172.3,46.45 L172.3,29.45 Z" id="Shape" fill="#2E3B42" fill-rule="nonzero"></path>
            <path d="M216.7,46 C215.2,53.2 209.8,58.1 201.7,58.1 C191.5,58.1 184.5,50 184.5,37.9 C184.5,26.4 191.1,17.7 201.6,17.7 C211.9,17.7 217.3,25.7 217.3,36.7 L217.3,38.3 L188.7,38.3 C188.8,48.2 194.1,54.3 201.6,54.3 C207.1,54.3 211.2,51.2 212.4,46.1 L216.7,46.1 L216.7,46 Z M188.9,34.9 L212.9,34.9 C212.7,28 209.3,21.6 201.6,21.6 C194.6,21.65 189.8,26.75 188.9,34.95 L188.9,34.9 Z" id="Shape" fill="#2E3B42" fill-rule="nonzero"></path>
            <path d="M243.4,22.55 C242.256062,22.0877316 241.033809,21.8500713 239.8,21.85 C235.1,21.85 231.3,25.25 229.5,30.25 L229.5,57.35 L225.1,57.35 L225.1,18.55 L229.5,18.55 L229.5,24.75 C231.349637,20.580641 235.439962,17.8537572 240,17.75 C241.149872,17.7727656 242.292256,17.9407633 243.4,18.25 L243.4,22.55 L243.4,22.55 Z" id="Shape" fill="#2E3B42" fill-rule="nonzero"></path>
            <path d="M271.2,57.35 L271.2,53.65 C269.5,55.65 265.3,57.95 260.5,57.95 C252.6,57.95 246.2,53.45 246.2,45.95 C246.2,38.75 252.7,34.05 260.7,34.05 C264.616021,34.0734094 268.387478,35.5321806 271.3,38.15 L271.3,31.25 C271.3,25.45 267.8,21.55 261.6,21.55 C256.8,21.55 253.6,23.65 252.2,28.15 L247.9,28.15 C249.4,21.55 254.8,17.65 261.6,17.65 C270.3,17.65 275.5,22.85 275.5,31.05 L275.5,57.25 L271.2,57.25 L271.2,57.35 Z M271.2,43.55 C270,40.25 265.6,37.75 260.9,37.75 C255.4,37.75 250.2,40.45 250.2,45.95 C250.2,51.45 255.4,54.25 260.9,54.25 C265.6,54.25 270,51.85 271.2,48.45 L271.2,43.55 Z" id="Shape" fill="#2E3B42" fill-rule="nonzero"></path>
            <path d="M332.315,33.9298438 L310.131406,33.9298438 L310.131406,52.0704688 L335.900938,52.0704688 L335.900938,57.59 L303.381406,57.59 L303.381406,6.4025 L335.549375,6.4025 L335.549375,11.9571875 L310.131406,11.9571875 L310.131406,28.4103125 L332.315,28.4103125 L332.315,33.9298438 Z M349.436094,19.5509375 L349.647031,24.3321875 C352.553296,20.6759192 356.350133,18.8478125 361.037656,18.8478125 C369.076759,18.8478125 373.131406,23.3829234 373.201719,32.4532813 L373.201719,57.59 L366.697813,57.59 L366.697813,32.418125 C366.674375,29.6759238 366.047428,27.6486003 364.816953,26.3360938 C363.586478,25.0235872 361.670482,24.3673438 359.068906,24.3673438 C356.959521,24.3673438 355.107977,24.9298381 353.514219,26.0548438 C351.920461,27.1798494 350.678286,28.6563971 349.787656,30.4845313 L349.787656,57.59 L343.28375,57.59 L343.28375,19.5509375 L349.436094,19.5509375 Z M391.834531,10.34 L391.834531,19.5509375 L398.936094,19.5509375 L398.936094,24.5782813 L391.834531,24.5782813 L391.834531,48.168125 C391.834531,49.6915701 392.150934,50.8341368 392.78375,51.5958594 C393.416566,52.3575819 394.49468,52.7384375 396.018125,52.7384375 C396.768129,52.7384375 397.799368,52.5978139 399.111875,52.3165625 L399.111875,57.59 C397.400929,58.0587523 395.736883,58.293125 394.119688,58.293125 C391.213423,58.293125 389.022039,57.4142275 387.545469,55.6564063 C386.068899,53.898585 385.330625,51.4025162 385.330625,48.168125 L385.330625,24.5782813 L378.404844,24.5782813 L378.404844,19.5509375 L385.330625,19.5509375 L385.330625,10.34 L391.834531,10.34 Z M422.315,58.293125 C417.158724,58.293125 412.963454,56.5997826 409.729063,53.2130469 C406.494671,49.8263112 404.8775,45.2970596 404.8775,39.6251563 L404.8775,38.4298438 C404.8775,34.6563874 405.598196,31.2872804 407.039609,28.3224219 C408.481023,25.3575633 410.496628,23.037274 413.086484,21.3614844 C415.676341,19.6856947 418.482954,18.8478125 421.506406,18.8478125 C426.451743,18.8478125 430.295455,20.4767025 433.037656,23.7345312 C435.779857,26.99236 437.150938,31.6563759 437.150938,37.7267188 L437.150938,40.43375 L411.381406,40.43375 C411.475157,44.1837687 412.570849,47.2130353 414.668516,49.5216406 C416.766182,51.8302459 419.432171,52.9845313 422.666563,52.9845313 C424.963449,52.9845313 426.908742,52.5157859 428.5025,51.5782813 C430.096258,50.6407766 431.490775,49.3986015 432.686094,47.8517188 L436.65875,50.9454688 C433.471234,55.8439307 428.690032,58.293125 422.315,58.293125 Z M421.506406,24.1915625 C418.881393,24.1915625 416.67829,25.1466311 414.897031,27.0567969 C413.115772,28.9669627 412.014221,31.6446703 411.592344,35.09 L430.647031,35.09 L430.647031,34.5978125 C430.45953,31.2931085 429.568914,28.7325872 427.975156,26.9161719 C426.381398,25.0997565 424.22517,24.1915625 421.506406,24.1915625 Z M463.061094,25.386875 C462.076714,25.2228117 461.010318,25.1407813 459.861875,25.1407813 C455.596229,25.1407813 452.701726,26.9571693 451.178281,30.59 L451.178281,57.59 L444.674375,57.59 L444.674375,19.5509375 L451.0025,19.5509375 L451.107969,23.9454688 C453.240792,20.5470143 456.264199,18.8478125 460.178281,18.8478125 C461.443913,18.8478125 462.40484,19.0118734 463.061094,19.34 L463.061094,25.386875 Z M501.170469,38.9923438 C501.170469,44.7814352 499.846263,49.4454511 497.197813,52.9845313 C494.549362,56.5236114 490.96346,58.293125 486.44,58.293125 C481.822789,58.293125 478.190013,56.8282959 475.541563,53.8985938 L475.541563,72.215 L469.037656,72.215 L469.037656,19.5509375 L474.979063,19.5509375 L475.295469,23.7696875 C477.943919,20.4884211 481.62357,18.8478125 486.334531,18.8478125 C490.904867,18.8478125 494.520065,20.5704515 497.180234,24.0157813 C499.840404,27.461111 501.170469,32.2540318 501.170469,38.3946875 L501.170469,38.9923438 Z M494.666563,38.2540625 C494.666563,33.9649786 493.752509,30.5782937 491.924375,28.0939063 C490.096241,25.6095188 487.588453,24.3673438 484.400938,24.3673438 C480.463418,24.3673438 477.510322,26.11342 475.541563,29.605625 L475.541563,47.7814063 C477.486885,51.2501736 480.463417,52.9845313 484.47125,52.9845313 C487.588453,52.9845313 490.066944,51.7482155 491.906797,49.2755469 C493.74665,46.8028783 494.666563,43.1290869 494.666563,38.2540625 Z M527.818906,25.386875 C526.834526,25.2228117 525.768131,25.1407813 524.619688,25.1407813 C520.354041,25.1407813 517.459539,26.9571693 515.936094,30.59 L515.936094,57.59 L509.432188,57.59 L509.432188,19.5509375 L515.760313,19.5509375 L515.865781,23.9454688 C517.998604,20.5470143 521.022012,18.8478125 524.936094,18.8478125 C526.201725,18.8478125 527.162653,19.0118734 527.818906,19.34 L527.818906,25.386875 Z M540.861875,57.59 L534.357969,57.59 L534.357969,19.5509375 L540.861875,19.5509375 L540.861875,57.59 Z M533.830625,9.46109375 C533.830625,8.40640098 534.152887,7.51578488 534.797422,6.78921875 C535.441956,6.06265262 536.397025,5.699375 537.662656,5.699375 C538.928288,5.699375 539.889215,6.06265262 540.545469,6.78921875 C541.201722,7.51578488 541.529844,8.40640098 541.529844,9.46109375 C541.529844,10.5157865 541.201722,11.394684 540.545469,12.0978125 C539.889215,12.800941 538.928288,13.1525 537.662656,13.1525 C536.397025,13.1525 535.441956,12.800941 534.797422,12.0978125 C534.152887,11.394684 533.830625,10.5157865 533.830625,9.46109375 Z M573.416563,47.5001563 C573.416563,45.742335 572.75446,44.3771142 571.430234,43.4044531 C570.106009,42.431792 567.797438,41.5939098 564.504453,40.8907813 C561.211468,40.1876527 558.598213,39.3439112 556.664609,38.3595313 C554.731006,37.3751513 553.301333,36.203288 552.375547,34.8439063 C551.449761,33.4845245 550.986875,31.8673531 550.986875,29.9923438 C550.986875,26.8751407 552.305221,24.2384483 554.941953,22.0821875 C557.578685,19.9259267 560.947792,18.8478125 565.049375,18.8478125 C569.361897,18.8478125 572.859908,19.9610826 575.543516,22.1876562 C578.227123,24.4142299 579.568906,27.2618577 579.568906,30.730625 L573.029844,30.730625 C573.029844,28.9493661 572.273992,27.4142252 570.762266,26.1251562 C569.250539,24.8360873 567.346261,24.1915625 565.049375,24.1915625 C562.682176,24.1915625 560.830632,24.7071823 559.494688,25.7384375 C558.158743,26.7696927 557.490781,28.1173354 557.490781,29.7814063 C557.490781,31.3517266 558.111869,32.5353085 559.354063,33.3321875 C560.596256,34.1290665 562.840374,34.8907776 566.086484,35.6173438 C569.332594,36.3439099 571.963427,37.2110887 573.979063,38.2189063 C575.994698,39.2267238 577.488823,40.4396023 578.461484,41.8575781 C579.434145,43.275554 579.920469,45.0040523 579.920469,47.043125 C579.920469,50.4415795 578.561107,53.1661616 575.842344,55.2169531 C573.12358,57.2677446 569.596272,58.293125 565.260313,58.293125 C562.213422,58.293125 559.518137,57.7540679 557.174375,56.6759375 C554.830613,55.5978071 552.996647,54.0919628 551.672422,52.1583594 C550.348197,50.224756 549.686094,48.13298 549.686094,45.8829688 L556.19,45.8829688 C556.307188,48.0626671 557.180226,49.7911655 558.809141,51.0685156 C560.438055,52.3458658 562.588424,52.9845313 565.260313,52.9845313 C567.721262,52.9845313 569.695852,52.4864894 571.184141,51.4903906 C572.672429,50.4942919 573.416563,49.1642271 573.416563,47.5001563 Z M604.178281,58.293125 C599.022005,58.293125 594.826735,56.5997826 591.592344,53.2130469 C588.357953,49.8263112 586.740781,45.2970596 586.740781,39.6251563 L586.740781,38.4298438 C586.740781,34.6563874 587.461477,31.2872804 588.902891,28.3224219 C590.344304,25.3575633 592.359909,23.037274 594.949766,21.3614844 C597.539622,19.6856947 600.346235,18.8478125 603.369688,18.8478125 C608.315025,18.8478125 612.158736,20.4767025 614.900938,23.7345312 C617.643139,26.99236 619.014219,31.6563759 619.014219,37.7267188 L619.014219,40.43375 L593.244688,40.43375 C593.338438,44.1837687 594.43413,47.2130353 596.531797,49.5216406 C598.629464,51.8302459 601.295453,52.9845313 604.529844,52.9845313 C606.82673,52.9845313 608.772023,52.5157859 610.365781,51.5782813 C611.959539,50.6407766 613.354057,49.3986015 614.549375,47.8517188 L618.522031,50.9454688 C615.334515,55.8439307 610.553313,58.293125 604.178281,58.293125 Z M603.369688,24.1915625 C600.744674,24.1915625 598.541571,25.1466311 596.760313,27.0567969 C594.979054,28.9669627 593.877502,31.6446703 593.455625,35.09 L612.510313,35.09 L612.510313,34.5978125 C612.322812,31.2931085 611.432195,28.7325872 609.838438,26.9161719 C608.24468,25.0997565 606.088451,24.1915625 603.369688,24.1915625 Z" id="Enterprise" fill="#000000"></path>
        </g>
    </g>
</svg>