<svg id="Layer_1" data-name="Layer 1" xmlns="http://www.w3.org/2000/svg" viewBox="0 0 868.937 72.544"><defs><style>.cls-1{fill:#2e3b42;}</style></defs><title>cloudera-data-engineering</title><path class="cls-1" d="M34.848,11.244c10.4,0,17.655,6.117,19.84,15.382h-4.37c-2.273-6.818-7.6-11.187-15.47-11.187-11.1,0-19.054,9-19.054,23.424,0,14.334,7.954,23.424,19.054,23.424,7.866,0,13.2-4.371,15.47-11.187h4.37c-2.185,9.263-9.527,15.382-19.84,15.382-13.2,0-23.6-10.664-23.6-27.619S21.65,11.244,34.848,11.244Z" transform="translate(-11.249 -8.883)"/><path class="cls-1" d="M66.923,65.695h-4.37V8.883h4.37Z" transform="translate(-11.249 -8.883)"/><path class="cls-1" d="M91.918,66.482c-10.226,0-17.13-8.216-17.13-20.19S81.692,26.1,91.918,26.1c10.314,0,17.219,8.217,17.219,20.191S102.232,66.482,91.918,66.482Zm0-36.535c-7.691,0-12.76,6.555-12.76,16.345s5.069,16.345,12.76,16.345c7.779,0,12.849-6.556,12.849-16.345S99.7,29.947,91.918,29.947Z" transform="translate(-11.249 -8.883)"/><path class="cls-1" d="M146.631,65.695h-4.283v-6.2a14.964,14.964,0,0,1-12.324,6.992c-8.827,0-13.46-5.681-13.46-13.9v-25.7h4.283V51.973c0,6.031,3.059,10.488,9.964,10.488,5.332,0,9.614-3.758,11.537-8.391V26.888h4.283Z" transform="translate(-11.249 -8.883)"/><path class="cls-1" d="M183.512,59.927a14.987,14.987,0,0,1-12.061,6.555c-11.45,0-16.956-9.439-16.956-20.19S160,26.1,171.451,26.1a14.985,14.985,0,0,1,12.061,6.556V8.883H187.8V65.695h-4.283Zm0-22.113c-2.622-4.982-6.992-7.691-11.712-7.691-8.128,0-12.935,6.816-12.935,16.169s4.807,16.169,12.935,16.169c4.72,0,9.09-2.709,11.712-7.691Z" transform="translate(-11.249 -8.883)"/><path class="cls-1" d="M228,54.42c-1.486,7.168-6.905,12.062-15.033,12.062-10.226,0-17.218-8.128-17.218-20.19,0-11.538,6.555-20.191,17.13-20.191,10.314,0,15.733,7.954,15.733,18.967v1.574H200.029c.088,9.876,5.419,15.995,12.936,15.995,5.506,0,9.614-3.06,10.838-8.217ZM200.2,43.232H224.24c-.262-6.816-3.671-13.285-11.363-13.285C205.885,29.947,201.078,35.1,200.2,43.232Z" transform="translate(-11.249 -8.883)"/><path class="cls-1" d="M254.654,30.909a9.03,9.03,0,0,0-3.584-.7c-4.719,0-8.478,3.41-10.313,8.392V65.695h-4.37V26.888h4.37v6.205A11.73,11.73,0,0,1,251.245,26.1a11.172,11.172,0,0,1,3.409.525Z" transform="translate(-11.249 -8.883)"/><path class="cls-1" d="M282.445,65.695V62.024c-1.66,2.011-5.943,4.283-10.75,4.283-7.866,0-14.334-4.545-14.334-11.974,0-7.167,6.468-11.887,14.509-11.887,4.545,0,8.827,2.185,10.575,4.109V39.649c0-5.769-3.5-9.7-9.7-9.7-4.806,0-7.953,2.1-9.439,6.642h-4.284c1.487-6.554,6.906-10.488,13.723-10.488,8.652,0,13.9,5.244,13.9,13.374v26.22Zm0-13.809c-1.222-3.322-5.593-5.769-10.312-5.769-5.507,0-10.664,2.709-10.664,8.216s5.157,8.3,10.664,8.3c4.719,0,9.09-2.448,10.312-5.77Z" transform="translate(-11.249 -8.883)"/><path class="cls-1" d="M314.17,12.03h18.092c15.82,0,26.047,10.488,26.047,26.833s-10.227,26.832-26.047,26.832H314.17Zm17.742,45.536c11.276,0,17.307-7.254,17.307-18.7,0-11.537-6.031-18.792-17.307-18.792H323.26v37.5Z" transform="translate(-11.249 -8.883)"/><path class="cls-1" d="M386.188,65.695V63.51c-1.312,1.311-5.245,2.885-9.616,2.885-7.953,0-14.508-4.72-14.508-12.674,0-7.342,6.555-12.5,15.121-12.5,3.5,0,7.428,1.223,9,2.359V40.436c0-3.934-2.448-6.993-7.43-6.993-3.5,0-5.682,1.486-6.643,4.2h-8.39c1.136-6.642,7.254-11.624,15.208-11.624,9.789,0,15.557,5.419,15.557,14.248V65.695Zm0-13.547c-.962-2.447-4.459-3.933-7.955-3.933-3.932,0-8.041,1.66-8.041,5.506,0,3.933,4.109,5.593,8.041,5.593,3.5,0,6.993-1.485,7.955-3.932Z" transform="translate(-11.249 -8.883)"/><path class="cls-1" d="M404.629,34.142H398.51V26.888h6.119v-10.4h8.74v10.4h8.74v7.254h-8.74v20.1c0,3.147,1.748,4.545,4.632,4.545a9.338,9.338,0,0,0,4.981-1.574v7.954a13.525,13.525,0,0,1-6.554,1.4c-6.9,0-11.8-3.671-11.8-11.362Z" transform="translate(-11.249 -8.883)"/><path class="cls-1" d="M450.863,65.695V63.51c-1.311,1.311-5.244,2.885-9.615,2.885-7.953,0-14.508-4.72-14.508-12.674,0-7.342,6.555-12.5,15.12-12.5,3.5,0,7.429,1.223,9,2.359V40.436c0-3.934-2.447-6.993-7.429-6.993-3.5,0-5.682,1.486-6.643,4.2H428.4c1.137-6.642,7.254-11.624,15.208-11.624,9.789,0,15.558,5.419,15.558,14.248V65.695Zm0-13.547c-.962-2.447-4.458-3.933-7.954-3.933-3.932,0-8.041,1.66-8.041,5.506,0,3.933,4.109,5.593,8.041,5.593,3.5,0,6.992-1.485,7.954-3.932Z" transform="translate(-11.249 -8.883)"/><path class="cls-1" d="M520.869,12.03v8.041H494.735V34.23h23.687v7.954H494.735V57.566h26.134v8.129H485.82V12.03Z" transform="translate(-11.249 -8.883)"/><path class="cls-1" d="M528.471,26.888h8.74v3.671A14.05,14.05,0,0,1,547.7,26.014c8.828,0,13.723,5.857,13.723,14.422V65.695h-8.74V41.922c0-4.807-2.361-7.954-7.342-7.954a8.224,8.224,0,0,0-8.129,6.206V65.695h-8.74Z" transform="translate(-11.249 -8.883)"/><path class="cls-1" d="M595.157,61.325c-1.748,2.1-5.507,4.021-9.876,4.021-11.45,0-18.006-9.44-18.006-19.666s6.556-19.666,18.006-19.666c4.369,0,8.128,1.923,9.876,4.021V26.888h8.74V62.461c0,13.111-7.954,18.967-18.266,18.967-9.877,0-16.258-5.157-17.219-13.635h8.479c.873,4.283,3.932,6.468,8.74,6.468,6.467,0,9.526-3.933,9.526-11.188Zm0-22.987a9.742,9.742,0,0,0-8.39-4.632c-6.73,0-10.576,5.069-10.576,11.974s3.846,11.974,10.576,11.974a9.738,9.738,0,0,0,8.39-4.633Z" transform="translate(-11.249 -8.883)"/><path class="cls-1" d="M617.355,20.507a5.427,5.427,0,0,1-5.418-5.331,5.419,5.419,0,0,1,10.837,0A5.427,5.427,0,0,1,617.355,20.507Zm4.371,45.188h-8.741V26.888h8.741Z" transform="translate(-11.249 -8.883)"/><path class="cls-1" d="M630.814,26.888h8.741v3.671a14.048,14.048,0,0,1,10.488-4.545c8.828,0,13.723,5.857,13.723,14.422V65.695h-8.741V41.922c0-4.807-2.36-7.954-7.341-7.954a8.224,8.224,0,0,0-8.129,6.206V65.695h-8.741Z" transform="translate(-11.249 -8.883)"/><path class="cls-1" d="M704.318,53.634c-1.31,7.691-6.992,12.935-16.343,12.935-10.838,0-18.356-8.215-18.356-20.19,0-11.625,7.605-20.365,18.18-20.365,10.926,0,16.869,7.778,16.869,19.142V48.3H678.186c.261,6.816,4.195,10.925,9.789,10.925,4.195,0,7.341-1.835,8.3-5.594ZM678.447,41.922h17.569c-.088-4.72-2.8-8.566-8.129-8.566C683.08,33.356,679.5,36.328,678.447,41.922Z" transform="translate(-11.249 -8.883)"/><path class="cls-1" d="M743.211,53.634c-1.311,7.691-6.992,12.935-16.344,12.935-10.838,0-18.355-8.215-18.355-20.19,0-11.625,7.6-20.365,18.179-20.365,10.926,0,16.87,7.778,16.87,19.142V48.3H717.078c.262,6.816,4.2,10.925,9.789,10.925,4.2,0,7.342-1.835,8.3-5.594ZM717.34,41.922h17.568c-.088-4.72-2.8-8.566-8.129-8.566C721.973,33.356,718.389,36.328,717.34,41.922Z" transform="translate(-11.249 -8.883)"/><path class="cls-1" d="M771.527,35.716a9.607,9.607,0,0,0-5.156-1.311,7.567,7.567,0,0,0-7.779,6.206V65.695h-8.74V26.888h8.74v4.021a9.744,9.744,0,0,1,8.652-4.895,10.888,10.888,0,0,1,4.283.7Z" transform="translate(-11.249 -8.883)"/><path class="cls-1" d="M782.189,20.507a5.427,5.427,0,0,1-5.418-5.331,5.419,5.419,0,0,1,10.837,0A5.427,5.427,0,0,1,782.189,20.507Zm4.371,45.188h-8.741V26.888h8.741Z" transform="translate(-11.249 -8.883)"/><path class="cls-1" d="M795.648,26.888h8.741v3.671a14.048,14.048,0,0,1,10.488-4.545c8.828,0,13.723,5.857,13.723,14.422V65.695h-8.741V41.922c0-4.807-2.36-7.954-7.341-7.954a8.224,8.224,0,0,0-8.129,6.206V65.695h-8.741Z" transform="translate(-11.249 -8.883)"/><path class="cls-1" d="M862.335,61.325c-1.748,2.1-5.507,4.021-9.876,4.021-11.45,0-18.006-9.44-18.006-19.666s6.556-19.666,18.006-19.666c4.369,0,8.128,1.923,9.876,4.021V26.888h8.74V62.461c0,13.111-7.954,18.967-18.266,18.967-9.877,0-16.258-5.157-17.219-13.635h8.478c.873,4.283,3.933,6.468,8.741,6.468,6.466,0,9.526-3.933,9.526-11.188Zm0-22.987a9.744,9.744,0,0,0-8.391-4.632c-6.729,0-10.575,5.069-10.575,11.974s3.846,11.974,10.575,11.974a9.74,9.74,0,0,0,8.391-4.633Z" transform="translate(-11.249 -8.883)"/><path class="cls-1" d="M868.286,18.055h4.9v.8h-2v5.2h-.9v-5.2h-2Zm8.6,6-1.8-4.4v4.4h-.9v-5.9h1.1l1.9,4.7,1.9-4.7h1.1v5.9h-.9v-4.4l-1.8,4.4Z" transform="translate(-11.249 -8.883)"/></svg>