<svg id="Layer_1" data-name="Layer 1" xmlns="http://www.w3.org/2000/svg" viewBox="0 0 838.2 57.75"><defs><style>.cls-1{fill:#2e3b42;}</style></defs><title>cloudera-data-warehouse</title><path class="cls-1" d="M34.9,11.3c10.4,0,17.7,6.1,19.8,15.4H50.3C48,19.9,42.7,15.5,34.8,15.5c-11.1,0-19.1,9-19.1,23.4s8,23.4,19.1,23.4c7.9,0,13.2-4.4,15.5-11.2h4.4c-2.2,9.3-9.5,15.4-19.8,15.4-13.2,0-23.6-10.7-23.6-27.6S21.7,11.3,34.9,11.3Z" transform="translate(-11.3 -8.88)"/><path class="cls-1" d="M67,65.7H62.6V8.9H67Z" transform="translate(-11.3 -8.88)"/><path class="cls-1" d="M92,66.5c-10.2,0-17.1-8.2-17.1-20.2S81.8,26.1,92,26.1s17.2,8.2,17.2,20.2S102.3,66.5,92,66.5ZM92,30c-7.7,0-12.8,6.6-12.8,16.3S84.3,62.6,92,62.6s12.8-6.6,12.8-16.3S99.8,30,92,30Z" transform="translate(-11.3 -8.88)"/><path class="cls-1" d="M146.7,65.7h-4.3V59.5a14.92,14.92,0,0,1-12.3,7c-8.8,0-13.5-5.7-13.5-13.9V26.9h4.3V52c0,6,3.1,10.5,10,10.5,5.3,0,9.6-3.8,11.5-8.4V26.9h4.3Z" transform="translate(-11.3 -8.88)"/><path class="cls-1" d="M183.6,59.9a15.07,15.07,0,0,1-12.1,6.6c-11.4,0-17-9.4-17-20.2s5.5-20.2,17-20.2a15,15,0,0,1,12.1,6.6V8.9h4.3V65.7h-4.3Zm0-22.1c-2.6-5-7-7.7-11.7-7.7-8.1,0-12.9,6.8-12.9,16.2s4.8,16.2,12.9,16.2c4.7,0,9.1-2.7,11.7-7.7Z" transform="translate(-11.3 -8.88)"/><path class="cls-1" d="M228,54.4c-1.5,7.2-6.9,12.1-15,12.1-10.2,0-17.2-8.1-17.2-20.2,0-11.5,6.6-20.2,17.1-20.2,10.3,0,15.7,8,15.7,19v1.6H200c.1,9.9,5.4,16,12.9,16,5.5,0,9.6-3.1,10.8-8.2H228ZM200.2,43.3h24C224,36.4,220.6,30,212.9,30,205.9,30,201.1,35.1,200.2,43.3Z" transform="translate(-11.3 -8.88)"/><path class="cls-1" d="M254.7,30.9a9.61,9.61,0,0,0-3.6-.7c-4.7,0-8.5,3.4-10.3,8.4V65.7h-4.4V26.9h4.4v6.2a11.78,11.78,0,0,1,10.5-7,13.65,13.65,0,0,1,3.4.5v4.3Z" transform="translate(-11.3 -8.88)"/><path class="cls-1" d="M282.5,62c-1.7,2-5.9,4.3-10.7,4.3-7.9,0-14.3-4.5-14.3-12,0-7.2,6.5-11.9,14.5-11.9a16,16,0,0,1,10.6,4.1V39.6c0-5.8-3.5-9.7-9.7-9.7-4.8,0-8,2.1-9.4,6.6h-4.3c1.5-6.6,6.9-10.5,13.7-10.5,8.7,0,13.9,5.2,13.9,13.4V65.6h-4.3Zm0-10.1c-1.2-3.3-5.6-5.8-10.3-5.8-5.5,0-10.7,2.7-10.7,8.2s5.2,8.3,10.7,8.3c4.7,0,9.1-2.4,10.3-5.8Z" transform="translate(-11.3 -8.88)"/><path class="cls-1" d="M837.6,21.38h4.9v.8h-2v5.2h-.9v-5.2h-2Zm8.6,6L844.4,23v4.4h-.9v-5.9h1.1l1.9,4.7,1.9-4.7h1.1v5.9h-.9V23l-1.8,4.4Z" transform="translate(-11.3 -8.88)"/><path class="cls-1" d="M310.47,12h18.11c15.84,0,26.08,10.5,26.08,26.86s-10.24,26.86-26.08,26.86H310.47Zm17.76,45.58c11.29,0,17.33-7.26,17.33-18.72s-6-18.81-17.33-18.81h-8.66V57.61Z" transform="translate(-11.3 -8.88)"/><path class="cls-1" d="M382.57,65.75V63.56c-1.31,1.31-5.25,2.89-9.62,2.89-8,0-14.53-4.73-14.53-12.69,0-7.35,6.57-12.51,15.14-12.51,3.5,0,7.44,1.23,9,2.36V40.46c0-3.93-2.45-7-7.44-7-3.5,0-5.68,1.49-6.64,4.2h-8.4C361.22,31,367.35,26,375.31,26c9.8,0,15.57,5.42,15.57,14.26V65.75Zm0-13.56c-1-2.45-4.46-3.94-8-3.94-3.94,0-8.05,1.66-8.05,5.51s4.11,5.6,8.05,5.6c3.5,0,7-1.48,8-3.94Z" transform="translate(-11.3 -8.88)"/><path class="cls-1" d="M401,34.16h-6.13V26.9H401V16.49h8.75V26.9h8.74v7.26h-8.74V54.29c0,3.15,1.75,4.55,4.63,4.55a9.35,9.35,0,0,0,5-1.58v8a13.49,13.49,0,0,1-6.56,1.4C405.94,66.62,401,63,401,55.25Z" transform="translate(-11.3 -8.88)"/><path class="cls-1" d="M447.32,65.75V63.56c-1.31,1.31-5.25,2.89-9.62,2.89-8,0-14.53-4.73-14.53-12.69,0-7.35,6.56-12.51,15.14-12.51,3.5,0,7.44,1.23,9,2.36V40.46c0-3.93-2.45-7-7.44-7-3.5,0-5.68,1.49-6.65,4.2h-8.4C426,31,432.1,26,440.06,26c9.8,0,15.57,5.42,15.57,14.26V65.75Zm0-13.56c-1-2.45-4.46-3.94-8-3.94-3.94,0-8.05,1.66-8.05,5.51s4.11,5.6,8.05,5.6c3.5,0,7-1.48,8-3.94Z" transform="translate(-11.3 -8.88)"/><path class="cls-1" d="M514.08,12l10.15,39.55L533.94,12h8.75L528.87,65.75h-8.4L510.32,27.34,500,65.75h-8.31L477.86,12h8.92l9.72,39.55L506.73,12Z" transform="translate(-11.3 -8.88)"/><path class="cls-1" d="M566.41,65.75V63.56c-1.32,1.31-5.25,2.89-9.63,2.89-8,0-14.52-4.73-14.52-12.69,0-7.35,6.56-12.51,15.13-12.51,3.5,0,7.44,1.23,9,2.36V40.46c0-3.93-2.45-7-7.44-7-3.5,0-5.69,1.49-6.65,4.2h-8.4C545.06,31,551.18,26,559.14,26c9.8,0,15.58,5.42,15.58,14.26V65.75Zm0-13.56c-1-2.45-4.47-3.94-8-3.94-3.93,0-8,1.66-8,5.51s4.11,5.6,8,5.6c3.5,0,7-1.48,8-3.94Z" transform="translate(-11.3 -8.88)"/><path class="cls-1" d="M605,35.74a9.56,9.56,0,0,0-5.16-1.31A7.58,7.58,0,0,0,592,40.64V65.75h-8.75V26.9H592v4a9.76,9.76,0,0,1,8.67-4.9,10.86,10.86,0,0,1,4.28.7Z" transform="translate(-11.3 -8.88)"/><path class="cls-1" d="M642,53.67c-1.31,7.7-7,13-16.36,13-10.85,0-18.37-8.22-18.37-20.21,0-11.63,7.61-20.38,18.2-20.38,10.94,0,16.88,7.78,16.88,19.16v3.15H615.84c.27,6.82,4.2,10.93,9.8,10.93,4.2,0,7.35-1.83,8.32-5.6ZM616.11,42h17.58c-.08-4.72-2.8-8.57-8.13-8.57C620.74,33.38,617.16,36.35,616.11,42Z" transform="translate(-11.3 -8.88)"/><path class="cls-1" d="M648.66,8.88h8.75v21.7A14,14,0,0,1,667.9,26c8.84,0,13.74,5.86,13.74,14.43V65.75h-8.75V42c0-4.81-2.36-8-7.35-8a8.22,8.22,0,0,0-8.13,6.21V65.75h-8.75Z" transform="translate(-11.3 -8.88)"/><path class="cls-1" d="M706,66.62c-10.94,0-18.46-8.4-18.46-20.29S695,26,706,26s18.46,8.4,18.46,20.3S716.9,66.62,706,66.62Zm0-33.07c-6.3,0-9.71,5.43-9.71,12.78S699.67,59.1,706,59.1s9.71-5.43,9.71-12.77S712.27,33.55,706,33.55Z" transform="translate(-11.3 -8.88)"/><path class="cls-1" d="M763.1,65.75h-8.75V62.07a13.86,13.86,0,0,1-10.41,4.55c-8.83,0-13.65-5.86-13.65-14.43V26.9H739V50.7c0,4.81,2.28,8,7.26,8a8.12,8.12,0,0,0,8.05-6.21V26.9h8.75Z" transform="translate(-11.3 -8.88)"/><path class="cls-1" d="M778.42,54.55c1,3.24,3.85,4.9,7.7,4.9,4,0,6.65-1.57,6.65-4.64,0-2.1-1.32-3.23-4.55-4l-8.05-1.93c-5.52-1.31-9.63-4.28-9.63-10.67,0-7,6.21-12.16,14.7-12.16,9.1,0,14.26,4.37,15.58,11.46h-8.58c-.79-2.54-3.06-4.29-7.09-4.29-3.06,0-6.21,1.4-6.21,4.46,0,1.75,1.23,2.89,4,3.59l8.22,1.93c6.65,1.57,10,5.33,10,11,0,7.7-6.39,12.42-15.14,12.42-9.1,0-15.4-4.55-16.54-12.07Z" transform="translate(-11.3 -8.88)"/><path class="cls-1" d="M840,53.67c-1.31,7.7-7,13-16.36,13-10.85,0-18.37-8.22-18.37-20.21,0-11.63,7.61-20.38,18.2-20.38,10.93,0,16.88,7.78,16.88,19.16v3.15H813.85c.27,6.82,4.2,10.93,9.8,10.93,4.2,0,7.35-1.83,8.31-5.6ZM814.12,42H831.7c-.09-4.72-2.8-8.57-8.13-8.57C818.75,33.38,815.17,36.35,814.12,42Z" transform="translate(-11.3 -8.88)"/></svg>