<svg id="Layer_1" data-name="Layer 1" xmlns="http://www.w3.org/2000/svg" viewBox="0 0 475.4 57.6">
    <defs>
        <style>.cls-1{ fill:#2E3B42; }</style>
    </defs>
    <title>cloudera-dwx</title>
    <path class="cls-1"
          d="M34.9,11.3c10.4,0,17.7,6.1,19.8,15.4H50.3C48,19.9,42.7,15.5,34.8,15.5c-11.1,0-19.1,9-19.1,23.4s8,23.4,19.1,23.4c7.9,0,13.2-4.4,15.5-11.2h4.4c-2.2,9.3-9.5,15.4-19.8,15.4-13.2,0-23.6-10.7-23.6-27.6S21.7,11.3,34.9,11.3Z"
          transform="translate(-11.3 -8.9)"/>
    <path class="cls-1" d="M67,65.7H62.6V8.9H67Z" transform="translate(-11.3 -8.9)"/>
    <path class="cls-1"
          d="M92,66.5c-10.2,0-17.1-8.2-17.1-20.2S81.8,26.1,92,26.1s17.2,8.2,17.2,20.2S102.3,66.5,92,66.5ZM92,30c-7.7,0-12.8,6.6-12.8,16.3S84.3,62.6,92,62.6s12.8-6.6,12.8-16.3S99.8,30,92,30Z"
          transform="translate(-11.3 -8.9)"/>
    <path class="cls-1"
          d="M146.7,65.7h-4.3V59.5a14.92,14.92,0,0,1-12.3,7c-8.8,0-13.5-5.7-13.5-13.9V26.9h4.3V52c0,6,3.1,10.5,10,10.5,5.3,0,9.6-3.8,11.5-8.4V26.9h4.3Z"
          transform="translate(-11.3 -8.9)"/>
    <path class="cls-1"
          d="M183.6,59.9a15.07,15.07,0,0,1-12.1,6.6c-11.4,0-17-9.4-17-20.2s5.5-20.2,17-20.2a15,15,0,0,1,12.1,6.6V8.9h4.3V65.7h-4.3Zm0-22.1c-2.6-5-7-7.7-11.7-7.7-8.1,0-12.9,6.8-12.9,16.2s4.8,16.2,12.9,16.2c4.7,0,9.1-2.7,11.7-7.7Z"
          transform="translate(-11.3 -8.9)"/>
    <path class="cls-1"
          d="M228,54.4c-1.5,7.2-6.9,12.1-15,12.1-10.2,0-17.2-8.1-17.2-20.2,0-11.5,6.6-20.2,17.1-20.2,10.3,0,15.7,8,15.7,19v1.6H200c.1,9.9,5.4,16,12.9,16,5.5,0,9.6-3.1,10.8-8.2H228ZM200.2,43.3h24C224,36.4,220.6,30,212.9,30,205.9,30,201.1,35.1,200.2,43.3Z"
          transform="translate(-11.3 -8.9)"/>
    <path class="cls-1"
          d="M254.7,30.9a9.61,9.61,0,0,0-3.6-.7c-4.7,0-8.5,3.4-10.3,8.4V65.7h-4.4V26.9h4.4v6.2a11.78,11.78,0,0,1,10.5-7,13.65,13.65,0,0,1,3.4.5v4.3Z"
          transform="translate(-11.3 -8.9)"/>
    <path class="cls-1"
          d="M282.5,65.7V62c-1.7,2-5.9,4.3-10.7,4.3-7.9,0-14.3-4.5-14.3-12,0-7.2,6.5-11.9,14.5-11.9a16,16,0,0,1,10.6,4.1V39.6c0-5.8-3.5-9.7-9.7-9.7-4.8,0-8,2.1-9.4,6.6h-4.3c1.5-6.6,6.9-10.5,13.7-10.5,8.7,0,13.9,5.2,13.9,13.4V65.6h-4.3Zm0-13.8c-1.2-3.3-5.6-5.8-10.3-5.8-5.5,0-10.7,2.7-10.7,8.2s5.2,8.3,10.7,8.3c4.7,0,9.1-2.4,10.3-5.8Z"
          transform="translate(-11.3 -8.9)"/>
    <path class="cls-1"
          d="M474.8,10.3h4.9v.8h-2v5.2h-.9V11.1h-2Zm8.6,6-1.8-4.4v4.4h-.9V10.4h1.1l1.9,4.7,1.9-4.7h1.1v5.9h-.9V11.9L484,16.3Z"
          transform="translate(-11.3 -8.9)"/>
    <path class="cls-1"
          d="M310.47,12h18.11c15.84,0,26.08,10.5,26.08,26.86s-10.24,26.86-26.08,26.86H310.47Zm17.76,45.58c11.29,0,17.33-7.26,17.33-18.72s-6-18.81-17.33-18.81h-8.66V57.61Z"
          transform="translate(-11.3 -8.9)"/>
    <path class="cls-1"
          d="M393.25,12,403.4,51.58,413.11,12h8.75L408,65.75h-8.4L389.48,27.34,379.16,65.75h-8.31L357,12H366l9.71,39.55L385.9,12Z"
          transform="translate(-11.3 -8.9)"/>
    <path class="cls-1"
          d="M451.78,38.19l19.08,27.56H460.45L446.53,45.54,432.62,65.75H422.47l19-27.39L423.35,12h10.41l12.95,19,13.21-19H470Z"
          transform="translate(-11.3 -8.9)"/>
</svg>