<?xml version="1.0" standalone="no"?>
<!DOCTYPE svg PUBLIC "-//W3C//DTD SVG 20010904//EN"
 "http://www.w3.org/TR/2001/REC-SVG-20010904/DTD/svg10.dtd">
<svg version="1.0" xmlns="http://www.w3.org/2000/svg"
 width="115.000000pt" height="131.000000pt" viewBox="0 0 115.000000 131.000000"
 preserveAspectRatio="xMidYMid meet">
<g transform="translate(0.000000,131.000000) scale(0.100000,-0.100000)"
fill="#C8C8C8" stroke="none">
<path d="M856 1278 c-14 -18 -49 -65 -78 -105 -29 -39 -72 -92 -96 -117 -64
-68 -53 -86 61 -101 29 -4 50 -12 54 -21 10 -28 -31 -137 -80 -214 -142 -217
-380 -368 -591 -373 l-81 -3 -7 -79 c-4 -44 -15 -115 -24 -158 -13 -61 -14
-81 -5 -90 7 -7 51 -13 110 -15 91 -4 103 -2 172 27 158 66 297 177 452 361
147 175 234 336 245 457 l4 52 32 -5 c17 -4 47 -10 66 -15 71 -18 77 -4 30 73
-17 27 -64 118 -104 203 -72 150 -76 155 -105 155 -22 0 -37 -9 -55 -32z m139
-184 c47 -92 84 -169 81 -172 -3 -2 -27 3 -53 12 -94 33 -87 35 -80 -17 20
-148 -134 -413 -372 -639 -144 -138 -332 -238 -444 -238 -75 0 -82 7 -68 69 6
29 11 73 11 99 0 80 7 92 52 92 66 0 189 30 263 64 83 39 217 138 276 204 59
66 134 184 157 245 11 29 23 78 27 109 8 63 6 64 -70 67 -76 3 -80 8 -43 49
19 20 55 69 82 107 45 64 86 115 92 115 1 0 41 -75 89 -166z"/>
</g>
</svg>
