<svg id="Layer_1" data-name="Layer 1" xmlns="http://www.w3.org/2000/svg" xmlns:xlink="http://www.w3.org/1999/xlink" viewBox="0 0 211.8 233.01"><defs><style>.cls-1,.cls-11,.cls-2,.cls-6,.cls-8{fill:none;}.cls-2{stroke:#d3d3d3;}.cls-11,.cls-2,.cls-6,.cls-8{stroke-width:0.75px;}.cls-3{font-size:6.21px;fill:#232323;}.cls-3,.cls-4,.cls-7,.cls-9{font-family:"Roboto-Regular", "Roboto", Arial, Helvetica, sans-serif;}.cls-4{font-size:10.35px;fill:#424242;}.cls-5{clip-path:url(#clip-path);}.cls-6{stroke:#ccc;}.cls-7,.cls-9{font-size:7.24px;}.cls-7{fill:#666;}.cls-8{stroke:#666;}.cls-9{fill:#0b7fad;}.cls-10{fill:#53b8e4;}.cls-11{stroke:#53b8e4;}</style><clipPath id="clip-path" transform="translate(-4.61 -1.37)"><rect class="cls-1" x="15.59" y="49.07" width="200.19" height="174.32"/></clipPath></defs><title>duration</title><rect class="cls-2" x="0.38" y="0.38" width="211.05" height="232.26"/><text class="cls-3" transform="translate(10.8 18.74)">Median</text><text class="cls-4" transform="translate(10.8 33.22)">1s</text><text class="cls-3" transform="translate(43.74 18.74)">Dur</text><text class="cls-3" transform="translate(53.21 18.74)">ation &lt; 500ms</text><text class="cls-4" transform="translate(43.74 33.22)">26.16%</text><g class="cls-5"><line class="cls-6" x1="44.6" y1="50.29" x2="44.6" y2="203.93"/><line class="cls-6" x1="85.6" y1="50.29" x2="85.6" y2="203.93"/><line class="cls-6" x1="126.59" y1="50.29" x2="126.59" y2="203.93"/><line class="cls-6" x1="167.59" y1="50.29" x2="167.59" y2="203.93"/><line class="cls-6" x1="208.58" y1="50.29" x2="208.58" y2="203.93"/><text class="cls-7" transform="translate(42.57 213.21)">0</text><text class="cls-7" transform="translate(75.43 213.21)">70000</text><text class="cls-7" transform="translate(114.39 213.21)">140000</text><text class="cls-7" transform="translate(155.39 213.21)">210000</text><text class="cls-7" transform="translate(186.77 213.21)">280000</text><line class="cls-8" x1="44.6" y1="50.29" x2="44.6" y2="203.93"/><line class="cls-8" x1="41.5" y1="65.66" x2="44.6" y2="65.66"/><text class="cls-9" transform="translate(19.28 68.23)">0s - 1s</text><line class="cls-8" x1="41.5" y1="96.38" x2="44.6" y2="96.38"/><text class="cls-9" transform="translate(19.28 98.95)">1s - 5s</text><line class="cls-8" x1="41.5" y1="127.11" x2="44.6" y2="127.11"/><text class="cls-9" transform="translate(15.21 129.68)">5s - 30s</text><line class="cls-8" x1="41.5" y1="157.84" x2="44.6" y2="157.84"/><text class="cls-9" transform="translate(12.6 160.41)">30s - 1m</text><line class="cls-8" x1="41.5" y1="188.56" x2="44.6" y2="188.56"/><text class="cls-9" transform="translate(24.15 191.13)">1m +</text><rect class="cls-10" x="44.6" y="57.24" width="159.24" height="16.55"/><rect class="cls-11" x="44.6" y="57.24" width="159.24" height="16.55"/><rect class="cls-10" x="44.6" y="87.97" width="118.72" height="16.55"/><rect class="cls-11" x="44.6" y="87.97" width="118.72" height="16.55"/><rect class="cls-10" x="44.6" y="118.7" width="84.25" height="16.55"/><rect class="cls-11" x="44.6" y="118.7" width="84.25" height="16.55"/><rect class="cls-10" x="44.6" y="149.42" width="19.49" height="16.55"/><rect class="cls-11" x="44.6" y="149.42" width="19.49" height="16.55"/><rect class="cls-10" x="44.6" y="180.15" width="54.26" height="16.55"/><rect class="cls-11" x="44.6" y="180.15" width="54.26" height="16.55"/></g></svg>