<svg id="Layer_1" data-name="Layer 1" xmlns="http://www.w3.org/2000/svg" xmlns:xlink="http://www.w3.org/1999/xlink" viewBox="0 0 212.01 232.68"><defs><style>.cls-1,.cls-2,.cls-6,.cls-8,.cls-9{fill:none;}.cls-2{stroke:#d3d3d3;}.cls-2,.cls-6,.cls-9{stroke-width:0.75px;}.cls-3{font-size:6.2px;fill:#232323;}.cls-10,.cls-12,.cls-3,.cls-4{font-family:"Roboto-Regular", "Roboto", Arial, Helvetica, sans-serif;}.cls-4{font-size:10.33px;}.cls-12,.cls-4{fill:#424242;}.cls-5{clip-path:url(#clip-path);}.cls-6{stroke:#ccc;}.cls-7{fill:#3182bd;opacity:0.6;}.cls-8{stroke:#29a7de;stroke-width:0.75px;}.cls-9{stroke:#666;}.cls-10,.cls-12{font-size:7.23px;}.cls-10{fill:#666;}.cls-11{fill:#29a7de;}</style><clipPath id="clip-path" transform="translate(-4.76 -1.37)"><rect class="cls-1" x="15.73" y="49" width="199.9" height="174.07"/></clipPath></defs><title>memory</title><rect class="cls-2" x="0.38" y="0.38" width="211.26" height="231.93"/><text class="cls-3" transform="translate(11.13 18.71)">A</text><text class="cls-3" transform="translate(15.02 18.71)">v</text><text class="cls-3" transform="translate(17.98 18.71)">er</text><text class="cls-3" transform="translate(23.24 18.71)">age</text><text class="cls-4" transform="translate(11.13 33.18)">37.4 GiB</text><text class="cls-3" transform="translate(62.18 18.71)">Minimum</text><text class="cls-4" transform="translate(62.18 33.18)">0</text><text class="cls-3" transform="translate(100.71 18.71)">Maximum</text><text class="cls-4" transform="translate(100.71 33.18)">130.4 GiB</text><g class="cls-5"><line class="cls-6" x1="50.74" y1="203.63" x2="208.28" y2="203.63"/><line class="cls-6" x1="50.74" y1="170.45" x2="208.28" y2="170.45"/><line class="cls-6" x1="50.74" y1="137.26" x2="208.28" y2="137.26"/><line class="cls-6" x1="50.74" y1="104.07" x2="208.28" y2="104.07"/><line class="cls-6" x1="50.74" y1="70.88" x2="208.28" y2="70.88"/><path class="cls-7" d="M55.5,196.87c.27,1.52.54,3,.81,3s.55-88.26.82-97.4.54-13.71.81-13.71.55,82.17.82,93.56.54,17.09.81,17.09.54-35.9.82-35.9.54,31.86.81,33.62.54,2.63.81,2.63.55-36.69.82-36.69.54,5.1.81,9.48.55,16.79.82,16.79.54-80.54.81-80.54.54,51.47.82,67.31.54,27.76.81,27.76.54-1,.81-2.91.55-19.56.82-19.56.54,10.89.81,10.89.55-11.26.82-11.26.54,13.6.81,13.6.54-72.76.82-72.76.54,74.6.81,77.36.54,4.14.82,4.14.54-10.1.81-27,.54-74.16.81-74.54a1.26,1.26,0,0,1,.82-.56,5.52,5.52,0,0,1,.81-.06h.82c.27,0,.54,94.56.81,94.56s.54-.64.82-1.92.54-105.06.81-105.06.54,81.66.81,81.66.55-54.39.82-54.39.54,53.19.81,53.19.55-66.14.82-66.14.54,99.66.81,99.66.54-12.91.82-12.91.52,1.16.78,1.16.54-.24.81-.71S87,99.5,87.23,99.5s.54,92.39.81,92.39.54-2.29.81-2.29.55,13,.82,13,.54-1.12.81-3.34.55-99.89.82-99.89a3.72,3.72,0,0,1,.81.09c.27.06.54.74.82,2.2s.54,46.1.81,46.1.54-45.85.81-45.85.55,86.82.82,92.68.54,8.78.81,8.78.55-12.72.82-12.72.54,9.39.81,9.39.54-3,.82-9,.54-53.69.81-53.69.54,59.33.81,59.33.55-23.1.82-23.1.54,29.13.81,29.13.55-9.39.82-11.67.54-1.14.81-3.42.55-71,.82-77.87.54-10.25.81-10.25.54,95.38.82,97.09.54,2.55.81,2.55.54-1.43.81-4.29.55-4.75.82-14.26.54-77.65.81-77.65.55,70.53.82,70.53.54-71.1.81-71.1.54,80.06.82,80.06.54-47.19.81-47.19.54,67.9.81,67.9.55-51.3.82-51.3.54,39.2.81,39.2.55-4.19.82-4.19.54,7.88.81,7.88.54-16,.82-16,.54,11.8.81,15.83.54,8.38.82,8.38.54-81.49.81-81.49.54,69,.81,69,.55-25.48.82-37.23S122,120,122.24,120s.55,50.13.82,62.42.54,17,.81,18.44.54,2.18.82,2.18.54-11.94.81-11.94.54,4.67.81,4.67.55-9.9.82-16.05.54-9.46.81-20.81.55-47.3.82-47.3.54,88.57.81,88.57.54-1,.82-2.87.54-14.87.81-15.63.54-.38.81-1.14.55-83.55.82-83.55.54,4.47.81,13.43.55,85.51.82,85.51.54-97.46.81-97.47.55,0,.82,0,.54,97.54.81,97.54.54-80.61.82-80.61.54,32.31.81,45.75.54,34.91.81,34.91.55-6.84.82-20.52.54-65.22.81-73.78.55-12.85.82-12.85.54,89.45.81,91.47.54,3,.82,3,.54-3,.81-3,.54,8.54.81,8.54.55-4.48.82-4.48.54,18.16.81,18.16.55-1.31.82-3.92.54-25,.81-25,.54,14.13.82,14.13.54-10.17.81-12a8.41,8.41,0,0,1,.82-2.75c.27-.79.54-2,.81-2s.54,25.9.81,26.53.55.94.82.94.54-1.18.81-3.53.55-9.24.82-12.25.54-1.92.81-5.76.54-32.33.82-32.33.54,22.55.81,32.29.54,26.13.81,26.13.55-39.72.82-39.72.54,31.88.81,31.88.55-6.12.82-6.12.54,5.1.81,5.1.54-3.18.82-3.18a1.13,1.13,0,0,1,.81.43,18.46,18.46,0,0,1,.81,4.34c.28,2,.55,7.84.82,7.84s.54-13.84.81-13.84.55,3.45.82,4,.54.84.81.84.55-42,.82-42,.54,22,.81,30.37.54,19.45.82,19.81a1.08,1.08,0,0,0,.81.55c.27,0,.54-102.7.81-102.7s.55,95,.82,95,.54-93.78.81-93.78.55,92.27.82,92.38.54.05.81.16.54,8.68.82,8.68.54-41.65.81-41.65.54,33.26.81,33.46a1.41,1.41,0,0,0,.82.3c.27,0,.54-15.91.81-15.91h.82c.27,0,.54-20.16.81-20.16s.54,35.26.82,36,.54,1.12.81,1.12.54-65.57.82-65.57.54,37.69.81,37.69.54-56.58.81-56.58.55,62.09.82,62.09.54-15.5.81-15.5.55,15.12.82,15.12.54-37.38.81-37.38.54,37.38.82,37.38H189c.27,0,.54-4,.81-4s.55,21.06.82,21.06.54-8.09.81-8.09.55,20.17.82,20.26a2.56,2.56,0,0,0,.81.14q.41,0,.82-9.65c.27-6.43.54-30.87.81-39.88s.54-6.18.81-14.14.55-31.36.82-33.62.54-3.38.81-3.38.55,101.38.82,101.38.54-5.22.81-6.55.55-.66.82-2,.54-6.44.81-6.44.54.56.82.56.54-24.27.81-24.27.54,40.17.81,40.17h9c.27,0,.54-1,.82-2v2H55.5Z" transform="translate(-4.76 -1.37)"/><path class="cls-8" d="M55.5,196.87c.27,1.52.54,3,.81,3s.55-88.26.82-97.4.54-13.71.81-13.71.55,82.17.82,93.56.54,17.09.81,17.09.54-35.9.82-35.9.54,31.86.81,33.62.54,2.63.81,2.63.55-36.69.82-36.69.54,5.1.81,9.48.55,16.79.82,16.79.54-80.54.81-80.54.54,51.47.82,67.31.54,27.76.81,27.76.54-1,.81-2.91.55-19.56.82-19.56.54,10.89.81,10.89.55-11.26.82-11.26.54,13.6.81,13.6.54-72.76.82-72.76.54,74.6.81,77.36.54,4.14.82,4.14.54-10.1.81-27,.54-74.16.81-74.54a1.26,1.26,0,0,1,.82-.56,5.52,5.52,0,0,1,.81-.06h.82c.27,0,.54,94.56.81,94.56s.54-.64.82-1.92.54-105.06.81-105.06.54,81.66.81,81.66.55-54.39.82-54.39.54,53.19.81,53.19.55-66.14.82-66.14.54,99.66.81,99.66.54-12.91.82-12.91.52,1.16.78,1.16.54-.24.81-.71S87,99.5,87.23,99.5s.54,92.39.81,92.39.54-2.29.81-2.29.55,13,.82,13,.54-1.12.81-3.34.55-99.89.82-99.89a3.72,3.72,0,0,1,.81.09c.27.06.54.74.82,2.2s.54,46.1.81,46.1.54-45.85.81-45.85.55,86.82.82,92.68.54,8.78.81,8.78.55-12.72.82-12.72.54,9.39.81,9.39.54-3,.82-9,.54-53.69.81-53.69.54,59.33.81,59.33.55-23.1.82-23.1.54,29.13.81,29.13.55-9.39.82-11.67.54-1.14.81-3.42.55-71,.82-77.87.54-10.25.81-10.25.54,95.38.82,97.09.54,2.55.81,2.55.54-1.43.81-4.29.55-4.75.82-14.26.54-77.65.81-77.65.55,70.53.82,70.53.54-71.1.81-71.1.54,80.06.82,80.06.54-47.19.81-47.19.54,67.9.81,67.9.55-51.3.82-51.3.54,39.2.81,39.2.55-4.19.82-4.19.54,7.88.81,7.88.54-16,.82-16,.54,11.8.81,15.83.54,8.38.82,8.38.54-81.49.81-81.49.54,69,.81,69,.55-25.48.82-37.23S122,120,122.24,120s.55,50.13.82,62.42.54,17,.81,18.44.54,2.18.82,2.18.54-11.94.81-11.94.54,4.67.81,4.67.55-9.9.82-16.05.54-9.46.81-20.81.55-47.3.82-47.3.54,88.57.81,88.57.54-1,.82-2.87.54-14.87.81-15.63.54-.38.81-1.14.55-83.55.82-83.55.54,4.47.81,13.43.55,85.51.82,85.51.54-97.46.81-97.47.55,0,.82,0,.54,97.54.81,97.54.54-80.61.82-80.61.54,32.31.81,45.75.54,34.91.81,34.91.55-6.84.82-20.52.54-65.22.81-73.78.55-12.85.82-12.85.54,89.45.81,91.47.54,3,.82,3,.54-3,.81-3,.54,8.54.81,8.54.55-4.48.82-4.48.54,18.16.81,18.16.55-1.31.82-3.92.54-25,.81-25,.54,14.13.82,14.13.54-10.17.81-12a8.41,8.41,0,0,1,.82-2.75c.27-.79.54-2,.81-2s.54,25.9.81,26.53.55.94.82.94.54-1.18.81-3.53.55-9.24.82-12.25.54-1.92.81-5.76.54-32.33.82-32.33.54,22.55.81,32.29.54,26.13.81,26.13.55-39.72.82-39.72.54,31.88.81,31.88.55-6.12.82-6.12.54,5.1.81,5.1.54-3.18.82-3.18a1.13,1.13,0,0,1,.81.43,18.46,18.46,0,0,1,.81,4.34c.28,2,.55,7.84.82,7.84s.54-13.84.81-13.84.55,3.45.82,4,.54.84.81.84.55-42,.82-42,.54,22,.81,30.37.54,19.45.82,19.81a1.08,1.08,0,0,0,.81.55c.27,0,.54-102.7.81-102.7s.55,95,.82,95,.54-93.78.81-93.78.55,92.27.82,92.38.54.05.81.16.54,8.68.82,8.68.54-41.65.81-41.65.54,33.26.81,33.46a1.41,1.41,0,0,0,.82.3c.27,0,.54-15.91.81-15.91h.82c.27,0,.54-20.16.81-20.16s.54,35.26.82,36,.54,1.12.81,1.12.54-65.57.82-65.57.54,37.69.81,37.69.54-56.58.81-56.58.55,62.09.82,62.09.54-15.5.81-15.5.55,15.12.82,15.12.54-37.38.81-37.38.54,37.38.82,37.38H189c.27,0,.54-4,.81-4s.55,21.06.82,21.06.54-8.09.81-8.09.55,20.17.82,20.26a2.56,2.56,0,0,0,.81.14q.41,0,.82-9.65c.27-6.43.54-30.87.81-39.88s.54-6.18.81-14.14.55-31.36.82-33.62.54-3.38.81-3.38.55,101.38.82,101.38.54-5.22.81-6.55.55-.66.82-2,.54-6.44.81-6.44.54.56.82.56.54-24.27.81-24.27.54,40.17.81,40.17h9c.27,0,.54-1,.82-2" transform="translate(-4.76 -1.37)"/><line class="cls-9" x1="50.74" y1="203.63" x2="208.28" y2="203.63"/><line class="cls-9" x1="50.74" y1="206.73" x2="50.74" y2="203.63"/><text class="cls-10" transform="translate(45.19 212.9)">2/3</text><line class="cls-9" x1="93.15" y1="206.73" x2="93.15" y2="203.63"/><text class="cls-10" transform="translate(85.57 212.9)">3/27</text><line class="cls-9" x1="135.57" y1="206.73" x2="135.57" y2="203.63"/><text class="cls-10" transform="translate(127.99 212.9)">5/18</text><line class="cls-9" x1="208.28" y1="206.73" x2="208.28" y2="203.63"/><text class="cls-10" transform="translate(195.7 212.9)">8/15</text><text class="cls-10" transform="translate(42.55 206.2)">0</text><text class="cls-10" transform="translate(19.55 173.01)">37.3 GiB</text><text class="cls-10" transform="translate(19.55 139.83)">74.5 GiB</text><text class="cls-10" transform="translate(15.49 106.64)">111.8 GiB</text><text class="cls-10" transform="translate(21.45 73.45)">149 GiB</text></g><path class="cls-11" d="M24.51,57.27a3.05,3.05,0,0,1-.06.6A3.18,3.18,0,0,1,24,59a2.89,2.89,0,0,1-.38.47,3.6,3.6,0,0,1-.47.39,3.45,3.45,0,0,1-.54.28,2.79,2.79,0,0,1-.58.18,3.08,3.08,0,0,1-1.21,0,3,3,0,0,1-.58-.18,3,3,0,0,1-.53-.28,3.6,3.6,0,0,1-.47-.39,2.5,2.5,0,0,1-.39-.47,3.5,3.5,0,0,1-.29-.54,3.54,3.54,0,0,1-.17-.58,3.05,3.05,0,0,1-.06-.6,3.15,3.15,0,0,1,.06-.61,3.86,3.86,0,0,1,.17-.58,3.39,3.39,0,0,1,.29-.53,3.3,3.3,0,0,1,.86-.86,2.43,2.43,0,0,1,.53-.28,3,3,0,0,1,.58-.18,3.08,3.08,0,0,1,1.21,0,3.43,3.43,0,0,1,1.12.46,2.5,2.5,0,0,1,.47.39,2.89,2.89,0,0,1,.38.47,2.73,2.73,0,0,1,.29.53,3,3,0,0,1,.18.58A3.15,3.15,0,0,1,24.51,57.27Z" transform="translate(-4.76 -1.37)"/><text class="cls-12" transform="translate(24.04 57.97)">Aggr</text><text class="cls-12" transform="translate(39.25 57.97)">egated max per node memor</text><text class="cls-12" transform="translate(131.86 57.97)">y</text></svg>