<svg id="Layer_1" data-name="Layer 1" xmlns="http://www.w3.org/2000/svg" xmlns:xlink="http://www.w3.org/1999/xlink" viewBox="0 0 212.28 232.97"><defs><style>.cls-1,.cls-11,.cls-13,.cls-16,.cls-2{fill:none;}.cls-2{stroke:#d3d3d3;}.cls-11,.cls-13,.cls-16,.cls-2{stroke-width:0.75px;}.cls-3{clip-path:url(#clip-path);}.cls-4{fill:#e8e8e8;}.cls-5{clip-path:url(#clip-path-2);}.cls-12,.cls-14,.cls-6,.cls-7{font-size:7.24px;}.cls-14,.cls-17,.cls-6,.cls-9{fill:#0b7fad;}.cls-6{font-family:"Roboto-Regular", "Roboto", Arial, Helvetica, sans-serif;}.cls-7{fill:#424242;}.cls-12,.cls-14,.cls-7,.cls-8,.cls-9{font-family:"Roboto-Regular", "Roboto", Arial, Helvetica, sans-serif;}.cls-8{font-size:6.21px;fill:#232323;}.cls-9{font-size:10.34px;}.cls-10{clip-path:url(#clip-path-4);}.cls-11{stroke:#ccc;}.cls-12{fill:#666;}.cls-13{stroke:#666;}.cls-15{fill:#00b9aa;}.cls-16{stroke:#00b9aa;}</style><clipPath id="clip-path" transform="translate(-4.42 -1.34)"><rect class="cls-1" x="15.4" y="6.11" width="190.33" height="217.22"/></clipPath><clipPath id="clip-path-2" transform="translate(-4.42 -1.34)"><rect class="cls-1" x="15.4" y="6.11" width="190.33" height="22.76"/></clipPath><clipPath id="clip-path-4" transform="translate(-4.42 -1.34)"><rect class="cls-1" x="15.4" y="73.87" width="190.33" height="149.47"/></clipPath></defs><title>statement_types</title><rect class="cls-2" x="0.38" y="0.38" width="211.53" height="232.22"/><g class="cls-3"><rect class="cls-4" x="10.98" y="27.01" width="190.33" height="0.52"/></g><g class="cls-5"><text class="cls-6" transform="translate(19.25 18.74)">All T</text><text class="cls-6" transform="translate(33.68 18.74)">ypes</text><text class="cls-7" transform="translate(82 18.74)">DDL T</text><text class="cls-7" transform="translate(101.26 18.74)">ypes</text></g><g class="cls-3"><text class="cls-8" transform="translate(10.98 43.56)">Quer</text><text class="cls-8" transform="translate(24.11 43.56)">y</text><text class="cls-9" transform="translate(10.98 58.04)">308449</text><text class="cls-8" transform="translate(49.97 58.04)">41.43%</text></g><g class="cls-10"><line class="cls-11" x1="44.6" y1="75.11" x2="44.6" y2="203.89"/><line class="cls-11" x1="85.58" y1="75.11" x2="85.58" y2="203.89"/><line class="cls-11" x1="126.57" y1="75.11" x2="126.57" y2="203.89"/><line class="cls-11" x1="167.56" y1="75.11" x2="167.56" y2="203.89"/><text class="cls-12" transform="translate(42.56 213.17)">0</text><text class="cls-12" transform="translate(73.39 213.17)">150000</text><text class="cls-12" transform="translate(114.37 213.17)">300000</text><text class="cls-12" transform="translate(155.36 213.17)">450000</text><text class="cls-12" transform="translate(186.74 213.17)">6000</text><line class="cls-13" x1="44.6" y1="75.11" x2="44.6" y2="203.89"/><line class="cls-13" x1="41.49" y1="85.84" x2="44.6" y2="85.84"/><text class="cls-14" transform="translate(27.07 88.41)">DDL</text><line class="cls-13" x1="41.49" y1="107.31" x2="44.6" y2="107.31"/><text class="cls-14" transform="translate(21.71 109.88)">Quer</text><text class="cls-14" transform="translate(37.03 109.88)">y</text><line class="cls-13" x1="41.49" y1="128.77" x2="44.6" y2="128.77"/><text class="cls-14" transform="translate(27.59 131.34)">N/A</text><line class="cls-13" x1="41.49" y1="150.23" x2="44.6" y2="150.23"/><text class="cls-14" transform="translate(25.49 152.8)">DML</text><line class="cls-13" x1="41.49" y1="171.7" x2="44.6" y2="171.7"/><text class="cls-14" transform="translate(29.96 174.27)">Set</text><line class="cls-13" x1="41.49" y1="193.16" x2="44.6" y2="193.16"/><text class="cls-14" transform="translate(17.24 195.73)">Explain</text><rect class="cls-15" x="44.6" y="77.51" width="114.05" height="16.55"/><rect class="cls-16" x="44.6" y="77.51" width="114.05" height="16.55"/><rect class="cls-15" x="44.6" y="98.98" width="84.28" height="16.55"/><rect class="cls-16" x="44.6" y="98.98" width="84.28" height="16.55"/><rect class="cls-15" x="44.6" y="120.44" width="4.25" height="16.55"/><rect class="cls-16" x="44.6" y="120.44" width="4.25" height="16.55"/><rect class="cls-15" x="44.6" y="141.91" width="0.54" height="16.55"/><rect class="cls-16" x="44.6" y="141.91" width="0.54" height="16.55"/><rect class="cls-15" x="44.6" y="163.37" width="0.27" height="16.55"/><rect class="cls-16" x="44.6" y="163.37" width="0.27" height="16.55"/><rect class="cls-15" x="44.6" y="184.83" width="0.03" height="16.55"/><rect class="cls-16" x="44.6" y="184.83" width="0.03" height="16.55"/></g><g class="cls-5"><rect class="cls-17" x="10.98" y="26.49" width="46.03" height="1.03"/></g></svg>