<svg id="Layer_1" data-name="Layer 1" xmlns="http://www.w3.org/2000/svg" xmlns:xlink="http://www.w3.org/1999/xlink" viewBox="0 0 422.07 232.76"><defs><style>.cls-1,.cls-11,.cls-12,.cls-13,.cls-2{fill:none;}.cls-2{stroke:#d3d3d3;}.cls-11,.cls-13,.cls-2{stroke-width:0.52px;}.cls-3{clip-path:url(#clip-path);}.cls-4{fill:#e8e8e8;}.cls-5{font-size:6.21px;fill:#232323;}.cls-14,.cls-5,.cls-6,.cls-9{font-family:"Roboto-Regular", "Roboto", Arial, Helvetica, sans-serif;}.cls-6{font-size:10.34px;}.cls-6,.cls-9{fill:#424242;}.cls-7{clip-path:url(#clip-path-2);}.cls-14,.cls-8,.cls-9{font-size:7.24px;}.cls-16,.cls-8{fill:#0b7fad;}.cls-8{font-family:"Roboto-Regular", "Roboto", Arial, Helvetica, sans-serif;}.cls-10{clip-path:url(#clip-path-3);}.cls-11{stroke:#ccc;}.cls-12{stroke:#00b9aa;stroke-width:1.03px;}.cls-13{stroke:#666;}.cls-14{fill:#666;}.cls-15{fill:#00b9aa;}</style><clipPath id="clip-path" transform="translate(-4.52 -1.38)"><rect class="cls-1" x="15.38" y="6.03" width="400.34" height="217.24"/></clipPath><clipPath id="clip-path-2" transform="translate(-4.52 -1.38)"><rect class="cls-1" x="15.38" y="6.03" width="400.34" height="22.76"/></clipPath><clipPath id="clip-path-3" transform="translate(-4.52 -1.38)"><rect class="cls-1" x="15.38" y="73.79" width="400.34" height="149.48"/></clipPath></defs><title>trend</title><rect class="cls-2" x="0.26" y="0.26" width="421.55" height="232.24"/><g class="cls-3"><rect class="cls-4" x="10.86" y="26.9" width="400.34" height="0.52"/><text class="cls-5" transform="translate(10.86 43.45)">A</text><text class="cls-5" transform="translate(14.76 43.45)">v</text><text class="cls-5" transform="translate(17.73 43.45)">er</text><text class="cls-5" transform="translate(22.99 43.45)">age</text><text class="cls-6" transform="translate(10.86 57.93)">708.88</text><text class="cls-5" transform="translate(55.05 43.45)">Minimum</text><text class="cls-6" transform="translate(55.05 57.93)">0</text><text class="cls-5" transform="translate(93.62 43.45)">Maximum</text><text class="cls-6" transform="translate(93.62 57.93)">13828</text></g><g class="cls-7"><text class="cls-8" transform="translate(19.14 18.62)">Concurr</text><text class="cls-8" transform="translate(44.85 18.62)">ency</text><text class="cls-9" transform="translate(93.19 18.62)">Count</text></g><g class="cls-10"><line class="cls-11" x1="44.48" y1="203.79" x2="408.62" y2="203.79"/><line class="cls-11" x1="44.48" y1="176.77" x2="408.62" y2="176.77"/><line class="cls-11" x1="44.48" y1="149.74" x2="408.62" y2="149.74"/><line class="cls-11" x1="44.48" y1="122.72" x2="408.62" y2="122.72"/><line class="cls-11" x1="44.48" y1="95.69" x2="408.62" y2="95.69"/><path class="cls-12" d="M49,204.93a17,17,0,0,0,1.88-.15,13.25,13.25,0,0,1,1.88-.47,12.65,12.65,0,0,1,1.89.38,10.85,10.85,0,0,0,1.88.23c.63,0,1.25,0,1.88-.06s1.26-.22,1.88-.22,1.26.33,1.89.33,1.25,0,1.88,0,1.25-.17,1.88-.22,1.26-.09,1.88-.09,1.26.24,1.88.24a15.15,15.15,0,0,0,1.89-.2,17,17,0,0,1,1.88-.25c.63,0,1.25.59,1.88.59s1.26-.39,1.88-.39h1.89c.62,0,1.25-.56,1.88-.56s1.25.23,1.88.23h1.88c.63,0,1.26-.08,1.89-.08a14.34,14.34,0,0,1,1.88.4,13.13,13.13,0,0,0,1.88.16c.63,0,1.25-.19,1.88-.25s1.26,0,1.88-.1,1.26-.2,1.89-.2,1.25.11,1.88.11,1.25-.38,1.88-.38,1.26.35,1.88.35,1.26-.18,1.89-.18,1.25.24,1.88.24,1.25-.34,1.88-.34a12.49,12.49,0,0,1,1.88.37,13.52,13.52,0,0,0,1.88.21l1.89,0,1.88,0c.63,0,1.25-.13,1.88-.19s1.2-.17,1.8-.17,1.26.41,1.89.41,1.25-1.29,1.88-1.29,1.25,1,1.88,1,1.26-.14,1.88-.2,1.26-.12,1.89-.12,1.25.63,1.88.63,1.25-.54,1.88-.54,1.26,0,1.88.08,1.26.21,1.89.21,1.25-.08,1.88-.08,1.25.08,1.88.1,1.25,0,1.88,0,1.26.11,1.88.11,1.26-.16,1.89-.16,1.25.22,1.88.22,1.25-.11,1.88-.15,1.26-.05,1.88-.08,1.26-.1,1.89-.1l1.88,0c.63,0,1.25.08,1.88.1s1.25.07,1.88.07a16.89,16.89,0,0,0,1.88-.21,17.37,17.37,0,0,1,1.89-.22c.62,0,1.25,0,1.88,0h1.88c.63,0,1.26.33,1.88.35s1.26,0,1.89,0,1.25-.79,1.88-.8l1.88,0c.63,0,1.26.7,1.88.7s1.26,0,1.88,0,1.26.36,1.89.36,1.25-.08,1.88-.08,1.25.17,1.88.17,1.26-.4,1.88-.4,1.26.1,1.89.13,1.25,0,1.88.07l1.88.11c.63,0,1.26.05,1.88.05s1.26-.21,1.89-.21,1.25.09,1.88.13,1.25.11,1.88.11,1.25-1.29,1.88-1.29,1.26.61,1.88.82a6.2,6.2,0,0,0,1.89.45,17,17,0,0,0,1.88-.1c.63-.07,1.25-12.32,1.88-12.32s1.26,12.33,1.88,12.33,1.26,0,1.89,0,1.25-1.47,1.88-1.47,1.25,1.32,1.88,1.32,1.25,0,1.88,0,1.26-.05,1.88-.05,1.26.21,1.89.21,1.25-.18,1.88-.18,1.25.15,1.88.15,1.26-.73,1.88-.73,1.26.63,1.89.63,1.25-.15,1.88-.15,1.25.29,1.88.29,1.26-.08,1.88-.08,1.26.08,1.88.12,1.26.11,1.89.11,1.25-.28,1.88-.28,1.25.14,1.88.14h1.88c.63,0,1.26,0,1.89,0s1.25-.17,1.88-.17,1.25.1,1.88.14,1.26.12,1.88.12,1.26-.68,1.89-.76a14.71,14.71,0,0,1,1.88-.12c.62,0,1.25.53,1.88.53l1.88,0c.63,0,1.26.28,1.88.3l1.89,0c.62,0,1.25-7.1,1.88-7.1s1.25,7.2,1.88,7.2,1.26-.13,1.88-.13h1.89c.62,0,1.25-11.17,1.88-15.56s1.25-6.74,1.88-10.73,1.25-8.76,1.88-13.17,1.26-8.63,1.88-13.29,1.26-14.69,1.89-14.69,1.25.43,1.88.43,1.25-17.7,1.88-24.23,1.26-15,1.88-15,1.26,13,1.89,13.21,1.25.09,1.88.27,1.25,26.38,1.88,26.39,1.26,0,1.88,0,1.26,6.36,1.88,13,1.26,26.62,1.89,26.62,1.25-.12,1.88-.12,1.25,8.91,1.88,13.39,1.26,13.52,1.88,13.52,1.26-.12,1.89-.17,1.25,0,1.88-.16a13.07,13.07,0,0,1,1.88-.5c.63,0,1.26.76,1.88.76s1.26,0,1.88,0h1.89c.62,0,1.25,0,1.88,0s1.25.1,1.88.1,1.26-.62,1.88-.62,1.26.47,1.89.47l1.88,0c.63,0,1.25.06,1.88.09s1.26.07,1.88.12,1.26.13,1.89.13,1.25,0,1.88,0,1.25-.29,1.88-.29,1.25.18,1.88.18a8,8,0,0,0,1.88-.22c.63-.14,1.26-4.4,1.89-4.4s1.25,4.35,1.88,4.47a10.19,10.19,0,0,0,3.76,0,12,12,0,0,1,1.89-.5c.62,0,1.25.46,1.88.46s1.25-.09,1.88-.09,1.25.34,1.88.34,1.26-.15,1.88-.15,1.26.12,1.89.12,1.25,0,1.88-.08,1.25-.14,1.88-.25a12.83,12.83,0,0,1,1.88-.39c.63,0,1.26.52,1.89.52s1.25-.43,1.88-.43,1.25.38,1.88.38,1.26-.08,1.88-.08,1.26.28,1.88.28,1.26-.12,1.89-.12,1.25.08,1.88.08,1.25-.63,1.88-.63a14.71,14.71,0,0,1,1.88.12,16.42,16.42,0,0,1,1.89.49,8.38,8.38,0,0,0,1.88.43,12.25,12.25,0,0,0,1.88-.3,14,14,0,0,1,1.88-.33l1.89,0c.62,0,1.25,0,1.88,0s1.25.79,1.88.79H412.2" transform="translate(-4.52 -1.38)"/><line class="cls-13" x1="44.48" y1="203.79" x2="408.62" y2="203.79"/><line class="cls-13" x1="44.48" y1="206.9" x2="44.48" y2="203.79"/><text class="cls-14" transform="translate(38.92 213.07)">2/3</text><line class="cls-13" x1="142.52" y1="206.9" x2="142.52" y2="203.79"/><text class="cls-14" transform="translate(134.93 213.07)">3/27</text><line class="cls-13" x1="240.55" y1="206.9" x2="240.55" y2="203.79"/><text class="cls-14" transform="translate(232.96 213.07)">5/18</text><line class="cls-13" x1="408.62" y1="206.9" x2="408.62" y2="203.79"/><text class="cls-14" transform="translate(396.02 213.07)">8/15</text><text class="cls-14" transform="translate(36.28 206.36)">0</text><text class="cls-14" transform="translate(24.08 179.34)">3500</text><text class="cls-14" transform="translate(24.08 152.31)">7000</text><text class="cls-14" transform="translate(20.01 125.29)">10500</text><text class="cls-14" transform="translate(20.01 98.26)">14000</text></g><g class="cls-3"><path class="cls-15" d="M24.17,82.07a3.23,3.23,0,0,1-.23,1.19,3.23,3.23,0,0,1-1.68,1.68,3.19,3.19,0,0,1-2.38,0,3.27,3.27,0,0,1-1-.68,3.08,3.08,0,0,1-.67-1,3.19,3.19,0,0,1,0-2.38,3.06,3.06,0,0,1,1.68-1.68,3.19,3.19,0,0,1,2.38,0,3.08,3.08,0,0,1,1,.67,3.27,3.27,0,0,1,.68,1A3.23,3.23,0,0,1,24.17,82.07Z" transform="translate(-4.52 -1.38)"/><text class="cls-9" transform="translate(23.79 82.76)">Count</text></g><g class="cls-7"><rect class="cls-16" x="10.86" y="26.38" width="57.41" height="1.03"/></g></svg>