<?xml version="1.0" encoding="UTF-8"?>
<svg width="1197px" height="801px" viewBox="0 0 1197 801" version="1.1" xmlns="http://www.w3.org/2000/svg" xmlns:xlink="http://www.w3.org/1999/xlink">
    <!-- Generator: Sketch 54.1 (76490) - https://sketchapp.com -->
    <title>Free Database Vector</title>
    <desc>Created with Sketch.</desc>
    <g id="Page-1" stroke="none" stroke-width="1" fill="none" fill-rule="evenodd">
        <g id="Free-Database-Vector">
            <rect id="Rectangle" fill="#FFFFFF" x="0" y="0" width="1197" height="801"></rect>
            <g id="Group" transform="translate(135.000000, 107.000000)">
                <path d="M205.9,394.1 L205.9,480 C220.7,494.8 229.1,503.2 243.9,518 L302.8,518" id="Path" stroke="#231F20" stroke-width="4"></path>
                <g id="Group-2" transform="translate(729.600000, 77.600000)">
                    <polyline id="Path" stroke="#003F7D" stroke-width="4" points="15 48.7 62.9 48.7 97.7 13.9 181.4 13.9"></polyline>
                    <polyline id="Path" stroke="#003F7D" stroke-width="4" points="0 63.6 62.9 63.6 85.1 85.8 181.4 85.8"></polyline>
                    <circle id="Oval" fill="#003F7D" fill-rule="nonzero" cx="183.2" cy="12.8" r="12.8"></circle>
                    <circle id="Oval" fill="#003F7D" fill-rule="nonzero" cx="183.2" cy="85.8" r="12.8"></circle>
                </g>
                <g id="Group-2" transform="translate(98.000000, 379.500000) scale(-1, 1) translate(-98.000000, -379.500000) translate(0.000000, 330.000000)">
                    <polyline id="Path" stroke="#003F7D" stroke-width="4" points="15 48.7 62.9 48.7 97.7 13.9 181.4 13.9"></polyline>
                    <polyline id="Path" stroke="#003F7D" stroke-width="4" points="0 63.6 62.9 63.6 85.1 85.8 181.4 85.8"></polyline>
                    <circle id="Oval" fill="#003F7D" fill-rule="nonzero" cx="183.2" cy="12.8" r="12.8"></circle>
                    <circle id="Oval" fill="#003F7D" fill-rule="nonzero" cx="183.2" cy="85.8" r="12.8"></circle>
                </g>
                <path d="M726.6,98 C725.3,98 724.1,98.1 722.8,98.2 C717.3,75.6 697.8,58.5 674,56.6 C662.8,24 632,0.5 595.6,0.5 C559.2,0.5 528.3,24 517.2,56.6 C515.7,56.5 514.2,56.4 512.7,56.4 C482.3,56.4 457.7,81 457.7,111.4 C457.7,141.8 482.3,166.4 512.7,166.4 C526.8,166.4 539.7,161.1 549.4,152.3 C562.6,161.2 578.5,166.4 595.6,166.4 C610.5,166.4 624.5,162.4 636.6,155.5 C645.8,162.3 657.1,166.4 669.4,166.4 C681.5,166.4 692.8,162.5 701.9,155.8 C708.1,162.3 716.9,166.4 726.6,166.4 C745.5,166.4 760.8,151.1 760.8,132.2 C760.7,113.3 745.4,98 726.6,98 Z" id="Path" stroke="#003F7D" stroke-width="4" fill="#287DBD" fill-rule="nonzero"></path>
                <path d="M384.8,190.1 C383.5,190.1 382.3,190.2 381,190.3 C375.4,167.7 355.9,150.7 332.2,148.8 C321,116.2 290,92.8 253.6,92.9 C217.2,93 186.4,116.5 175.3,149.1 C173.8,149 172.3,148.9 170.8,148.9 C140.4,149 115.9,173.6 115.9,204 C116,234.4 140.6,258.9 171,258.9 C185.1,258.9 198,253.5 207.7,244.8 C220.9,253.7 236.8,258.8 253.9,258.8 C268.8,258.8 282.8,254.8 294.9,247.9 C304.1,254.7 315.4,258.7 327.7,258.7 C339.8,258.7 351,254.7 360.1,248 C366.3,254.5 375.1,258.6 384.8,258.6 C403.7,258.6 418.9,243.2 418.9,224.4 C419,205.3 403.7,190.1 384.8,190.1 Z" id="Path" stroke="#287DBD" stroke-width="4" fill="#A585B9" fill-rule="nonzero"></path>
                <path d="M138.1,362.1 C138.9,362.1 139.7,362.2 140.6,362.2 C144.2,347.6 156.8,336.5 172.2,335.3 C179.5,314.2 199.5,299 223.1,299.1 C246.7,299.1 266.6,314.4 273.8,335.5 C274.8,335.4 275.7,335.4 276.7,335.4 C296.4,335.4 312.3,351.4 312.2,371.1 C312.1,390.8 296.2,406.7 276.5,406.6 C267.4,406.6 259,403.1 252.7,397.4 C244.1,403.1 233.8,406.5 222.8,406.4 C213.1,406.4 204.1,403.8 196.3,399.3 C190.4,403.7 183,406.3 175,406.3 C167.1,406.3 159.9,403.7 154,399.4 C150,403.6 144.3,406.3 138,406.2 C125.8,406.2 115.9,396.3 115.9,384 C115.9,371.7 125.9,362.1 138.1,362.1 Z" id="Path" stroke="#003F7D" stroke-width="4" fill="#287DBD" fill-rule="nonzero"></path>
                <path d="M573.4,445.5 C574.2,445.5 575,445.6 575.9,445.6 C579.5,431 592.1,419.9 607.5,418.7 C614.8,397.6 634.8,382.4 658.4,382.5 C682,382.5 701.9,397.8 709.1,418.9 C710.1,418.8 711,418.8 712,418.8 C731.7,418.8 747.6,434.8 747.5,454.5 C747.5,474.2 731.5,490.1 711.8,490 C702.7,490 694.3,486.5 688,480.8 C679.4,486.5 669.1,489.9 658.1,489.8 C648.4,489.8 639.4,487.2 631.6,482.7 C625.7,487.1 618.3,489.7 610.3,489.7 C602.4,489.7 595.2,487.1 589.3,482.8 C585.3,487 579.6,489.7 573.3,489.6 C561.1,489.6 551.2,479.7 551.2,467.4 C551.2,455.1 561.2,445.4 573.4,445.5 Z" id="Path" stroke="#287DBD" stroke-width="4" fill="#A585B9" fill-rule="nonzero"></path>
                <rect id="Rectangle" stroke="#231F20" stroke-width="4" fill="#00515D" fill-rule="nonzero" x="302.8" y="202.6" width="291.2" height="382.9"></rect>
                <path d="M302.8,279.6 L594,279.6" id="Path" stroke="#231F20" stroke-width="4"></path>
                <path d="M302.8,356.6 L594,356.6" id="Path" stroke="#231F20" stroke-width="4"></path>
                <path d="M302.8,433.6 L594,433.6" id="Path" stroke="#231F20" stroke-width="4"></path>
                <path d="M302.8,510.6 L594,510.6" id="Path" stroke="#231F20" stroke-width="4"></path>
                <rect id="Rectangle" stroke="#231F20" stroke-width="4" fill="#97FF72" fill-rule="nonzero" x="499.4" y="258.6" width="38" height="11"></rect>
                <rect id="Rectangle" stroke="#231F20" stroke-width="4" fill="#FF5B47" fill-rule="nonzero" x="544.9" y="258.6" width="38" height="11"></rect>
                <rect id="Rectangle" stroke="#231F20" stroke-width="4" fill="#99B9BE" fill-rule="nonzero" x="320.9" y="215.3" width="18" height="54.3"></rect>
                <rect id="Rectangle" stroke="#231F20" stroke-width="4" fill="#99B9BE" fill-rule="nonzero" x="349.6" y="215.3" width="18" height="54.3"></rect>
                <rect id="Rectangle" stroke="#231F20" stroke-width="4" fill="#99B9BE" fill-rule="nonzero" x="378.3" y="215.3" width="18" height="54.3"></rect>
                <path d="M418.9,215.3 L486.4,215.3" id="Path" stroke="#231F20" stroke-width="4"></path>
                <path d="M418.9,228.6 L486.4,228.6" id="Path" stroke="#231F20" stroke-width="4"></path>
                <path d="M418.9,242 L486.4,242" id="Path" stroke="#231F20" stroke-width="4"></path>
                <path d="M418.9,255.3 L486.4,255.3" id="Path" stroke="#231F20" stroke-width="4"></path>
                <path d="M418.9,268.6 L486.4,268.6" id="Path" stroke="#231F20" stroke-width="4"></path>
                <rect id="Rectangle" stroke="#231F20" stroke-width="4" fill="#97FF72" fill-rule="nonzero" x="499.4" y="334.3" width="38" height="11"></rect>
                <rect id="Rectangle" stroke="#231F20" stroke-width="4" fill="#FF5B47" fill-rule="nonzero" x="544.9" y="334.3" width="38" height="11"></rect>
                <rect id="Rectangle" stroke="#231F20" stroke-width="4" fill="#99B9BE" fill-rule="nonzero" x="320.9" y="291" width="18" height="54.3"></rect>
                <rect id="Rectangle" stroke="#231F20" stroke-width="4" fill="#99B9BE" fill-rule="nonzero" x="349.6" y="291" width="18" height="54.3"></rect>
                <rect id="Rectangle" stroke="#231F20" stroke-width="4" fill="#99B9BE" fill-rule="nonzero" x="378.3" y="291" width="18" height="54.3"></rect>
                <path d="M418.9,291 L486.4,291" id="Path" stroke="#231F20" stroke-width="4"></path>
                <path d="M418.9,304.3 L486.4,304.3" id="Path" stroke="#231F20" stroke-width="4"></path>
                <path d="M418.9,317.6 L486.4,317.6" id="Path" stroke="#231F20" stroke-width="4"></path>
                <path d="M418.9,331 L486.4,331" id="Path" stroke="#231F20" stroke-width="4"></path>
                <path d="M418.9,344.3 L486.4,344.3" id="Path" stroke="#231F20" stroke-width="4"></path>
                <rect id="Rectangle" stroke="#231F20" stroke-width="4" fill="#97FF72" fill-rule="nonzero" x="499.4" y="410" width="38" height="11"></rect>
                <rect id="Rectangle" stroke="#231F20" stroke-width="4" fill="#FF5B47" fill-rule="nonzero" x="544.9" y="410" width="38" height="11"></rect>
                <rect id="Rectangle" stroke="#231F20" stroke-width="4" fill="#99B9BE" fill-rule="nonzero" x="320.9" y="366.6" width="18" height="54.3"></rect>
                <rect id="Rectangle" stroke="#231F20" stroke-width="4" fill="#99B9BE" fill-rule="nonzero" x="349.6" y="366.6" width="18" height="54.3"></rect>
                <rect id="Rectangle" stroke="#231F20" stroke-width="4" fill="#99B9BE" fill-rule="nonzero" x="378.3" y="366.6" width="18" height="54.3"></rect>
                <path d="M418.9,366.6 L486.4,366.6" id="Path" stroke="#231F20" stroke-width="4"></path>
                <path d="M418.9,380 L486.4,380" id="Path" stroke="#231F20" stroke-width="4"></path>
                <path d="M418.9,393.3 L486.4,393.3" id="Path" stroke="#231F20" stroke-width="4"></path>
                <path d="M418.9,406.6 L486.4,406.6" id="Path" stroke="#231F20" stroke-width="4"></path>
                <path d="M418.9,420 L486.4,420" id="Path" stroke="#231F20" stroke-width="4"></path>
                <rect id="Rectangle" stroke="#231F20" stroke-width="4" fill="#97FF72" fill-rule="nonzero" x="499.4" y="485.6" width="38" height="11"></rect>
                <rect id="Rectangle" stroke="#231F20" stroke-width="4" fill="#FF5B47" fill-rule="nonzero" x="544.9" y="485.6" width="38" height="11"></rect>
                <rect id="Rectangle" stroke="#231F20" stroke-width="4" fill="#99B9BE" fill-rule="nonzero" x="320.9" y="442.3" width="18" height="54.3"></rect>
                <rect id="Rectangle" stroke="#231F20" stroke-width="4" fill="#99B9BE" fill-rule="nonzero" x="349.6" y="442.3" width="18" height="54.3"></rect>
                <rect id="Rectangle" stroke="#231F20" stroke-width="4" fill="#99B9BE" fill-rule="nonzero" x="378.3" y="442.3" width="18" height="54.3"></rect>
                <path d="M418.9,442.3 L486.4,442.3" id="Path" stroke="#231F20" stroke-width="4"></path>
                <path d="M418.9,455.6 L486.4,455.6" id="Path" stroke="#231F20" stroke-width="4"></path>
                <path d="M418.9,469 L486.4,469" id="Path" stroke="#231F20" stroke-width="4"></path>
                <path d="M418.9,482.3 L486.4,482.3" id="Path" stroke="#231F20" stroke-width="4"></path>
                <path d="M418.9,495.6 L486.4,495.6" id="Path" stroke="#231F20" stroke-width="4"></path>
                <rect id="Rectangle" stroke="#231F20" stroke-width="4" fill="#97FF72" fill-rule="nonzero" x="499.4" y="561.3" width="38" height="11"></rect>
                <rect id="Rectangle" stroke="#231F20" stroke-width="4" fill="#FF5B47" fill-rule="nonzero" x="544.9" y="561.3" width="38" height="11"></rect>
                <rect id="Rectangle" stroke="#231F20" stroke-width="4" fill="#99B9BE" fill-rule="nonzero" x="320.9" y="518" width="18" height="54.3"></rect>
                <rect id="Rectangle" stroke="#231F20" stroke-width="4" fill="#99B9BE" fill-rule="nonzero" x="349.6" y="518" width="18" height="54.3"></rect>
                <rect id="Rectangle" stroke="#231F20" stroke-width="4" fill="#99B9BE" fill-rule="nonzero" x="378.3" y="518" width="18" height="54.3"></rect>
                <path d="M418.9,518 L486.4,518" id="Path" stroke="#231F20" stroke-width="4"></path>
                <path d="M418.9,531.3 L486.4,531.3" id="Path" stroke="#231F20" stroke-width="4"></path>
                <path d="M418.9,544.6 L486.4,544.6" id="Path" stroke="#231F20" stroke-width="4"></path>
                <path d="M418.9,558 L486.4,558" id="Path" stroke="#231F20" stroke-width="4"></path>
                <path d="M418.9,571.3 L486.4,571.3" id="Path" stroke="#231F20" stroke-width="4"></path>
                <polyline id="Path" stroke="#231F20" stroke-width="4" points="594 317.6 649.4 317.6 676.5 279.6 676.5 166.3"></polyline>
                <polyline id="Path" stroke="#231F20" stroke-width="4" points="594 304.3 635.3 304.3 660.9 269.6 660.9 164.3"></polyline>
                <polyline id="Path" stroke="#231F20" stroke-width="4" points="594 538.6 660.9 538.6 660.9 489.9"></polyline>
                <polyline id="Path" stroke="#231F20" stroke-width="4" points="238.8 257.3 238.8 285.6 302.8 285.6"></polyline>
                <polyline id="Path" stroke="#231F20" stroke-width="4" points="222.9 406.5 222.9 469.5 252.2 498.8 302.8 498.8"></polyline>
                <path d="M571,242.7 L571,242.7 C569.1,242.7 567.5,241.1 567.5,239.2 L567.5,218.1 C567.5,216.2 569.1,214.6 571,214.6 L571,214.6 C572.9,214.6 574.5,216.2 574.5,218.1 L574.5,239.2 C574.5,241.2 572.9,242.7 571,242.7 Z" id="Path" fill="#FFFFFF" fill-rule="nonzero"></path>
                <path d="M571,316.1 L571,316.1 C569.1,316.1 567.5,314.5 567.5,312.6 L567.5,291.5 C567.5,289.6 569.1,288 571,288 L571,288 C572.9,288 574.5,289.6 574.5,291.5 L574.5,312.6 C574.5,314.5 572.9,316.1 571,316.1 Z" id="Path" fill="#FFFFFF" fill-rule="nonzero"></path>
                <path d="M571,393.4 L571,393.4 C569.1,393.4 567.5,391.8 567.5,389.9 L567.5,368.8 C567.5,366.9 569.1,365.3 571,365.3 L571,365.3 C572.9,365.3 574.5,366.9 574.5,368.8 L574.5,389.9 C574.5,391.8 572.9,393.4 571,393.4 Z" id="Path" fill="#FFFFFF" fill-rule="nonzero"></path>
                <path d="M571,472.7 L571,472.7 C569.1,472.7 567.5,471.1 567.5,469.2 L567.5,448.1 C567.5,446.2 569.1,444.6 571,444.6 L571,444.6 C572.9,444.6 574.5,446.2 574.5,448.1 L574.5,469.2 C574.5,471.2 572.9,472.7 571,472.7 Z" id="Path" fill="#FFFFFF" fill-rule="nonzero"></path>
                <path d="M571,550.1 L571,550.1 C569.1,550.1 567.5,548.5 567.5,546.6 L567.5,525.5 C567.5,523.6 569.1,522 571,522 L571,522 C572.9,522 574.5,523.6 574.5,525.5 L574.5,546.6 C574.5,548.5 572.9,550.1 571,550.1 Z" id="Path" fill="#FFFFFF" fill-rule="nonzero"></path>
            </g>
        </g>
    </g>
</svg>